<?xml version="1.0" encoding="UTF-8"?>
<svg id="Camada_1" xmlns="http://www.w3.org/2000/svg" viewBox="0 0 430.8 80.4">
  <defs>
    <style>
      .cls-1 {
        fill: #dadada;
      }

      .cls-2 {
        fill: #ffda45;
      }

      .cls-3 {
        fill: #ffe990;
      }

      .cls-4 {
        fill: #ededed;
      }
    </style>
  </defs>
  <polygon class="cls-3" points="41.8 .9 55.6 25.9 83.6 31.3 64.1 52.1 67.6 80.4 41.8 68.3 16 80.4 19.5 52.1 0 31.3 28 25.9 41.8 .9"/>
  <polygon class="cls-2" points="41.8 .9 55.6 25.9 83.6 31.3 64.1 52.1 67.6 80.4 41.8 68.3 41.8 .9"/>
  <polygon class="cls-3" points="129.6 .9 143.4 25.9 171.4 31.3 151.9 52.1 155.4 80.4 129.6 68.3 103.8 80.4 107.3 52.1 87.8 31.3 115.8 25.9 129.6 .9"/>
  <polygon class="cls-2" points="129.6 .9 143.4 25.9 171.4 31.3 151.9 52.1 155.4 80.4 129.6 68.3 129.6 .9"/>
  <g>
    <polygon class="cls-4" points="389 0 402.8 25 430.8 30.4 411.3 51.2 414.8 79.5 389 67.4 363.2 79.5 366.7 51.2 347.2 30.4 375.2 25 389 0"/>
    <polygon class="cls-1" points="389 0 402.8 25 430.8 30.4 411.3 51.2 414.8 79.5 389 67.4 389 0"/>
  </g>
  <g>
    <polygon class="cls-4" points="303 0 316.8 25 344.8 30.4 325.4 51.2 328.9 79.5 303 67.4 277.2 79.5 280.7 51.2 261.2 30.4 289.2 25 303 0"/>
    <polygon class="cls-1" points="303 0 316.8 25 344.8 30.4 325.4 51.2 328.9 79.5 303 67.4 303 0"/>
  </g>
  <g>
    <polygon class="cls-4" points="215.4 0 229.2 25 257.1 30.4 237.7 51.2 241.2 79.5 215.4 67.4 189.5 79.5 193 51.2 173.6 30.4 201.6 25 215.4 0"/>
    <polygon class="cls-1" points="215.4 0 229.2 25 257.1 30.4 237.7 51.2 241.2 79.5 215.4 67.4 215.4 0"/>
  </g>
</svg>