<?xml version="1.0" encoding="UTF-8"?>
<svg id="Camada_1" xmlns="http://www.w3.org/2000/svg" viewBox="0 0 337.5 139.8">
  <defs>
    <style>
      .cls-1 {
        fill: #fff;
      }

      .cls-2 {
        fill: #00983a;
      }

      .cls-3 {
        fill: #009640;
      }
    </style>
  </defs>
  <path class="cls-2" d="M89.5,71.3c-2,2.9.6,3.6,2.2,3.7,5.6.4,11.2,1,16.7.4,12.5-1.5,24.8-3.9,37.3-5.6,4.2-.6,8.6-.6,13.3-.9-1,3-1.9,5.6-3,8.5,1.2,0,2.1-.2,3.5-.3-1-.4-1.5-.5-2.3-.8,6.9-12.5,14.8-23.6,30.1-26,5.5-.9,11.2-.5,16.8-.8,17.3-.9,34.6-1.9,51.9-2.8,10.9-.5,21.8-.8,32.6-1.4,2-.1,3.9-1,5.8-1.7,7.3-2.5,14.2-2.7,20.2,3,.3.3.6.6.9.9.2.2.3.5,0,0-3.1,8.2-5.9,15.8-9,23.7-6.2.9-13,1.8-19.8,2.7-2.5.3-4.8.8-5.6,3.9-.3,1-1.9,1.8-3.1,2.2-16.7,5.1-33.4,10.2-50.1,15.2-.6.2-1.2.4-1.7,1.1,5.3-1.1,10.7-2,16-3.2,9.4-2.1,18.7-4.3,28-6.4,4.2-1,7.8-2.9,10.7-6.3.6-.7,1.7-1.3,2.7-1.5,6.8-1.2,13.6-2.3,20.4-3.3,2.3-.3,3.7-1.2,4.2-3.6.5-2.3,1.4-4.5,2.6-6.7,0,.6,0,1.2,0,1.8-1,8.9-1.4,17.9.8,26.7,1.5,5.8,4.1,10.9,9.9,14.1-5.2,0-10.3,0-15.5,0-1.1,0-2.2-.4-3.2-.3-4.2.2-7-1.8-8.5-5.6-.7-1.8-1.6-2.2-3.7-1.9-28.5,4.9-56.9,9.7-85.4,14.4-.7.1-1.5.1-2.8.3.4-1.2.7-2.1,1-3,0,.6,0,1.2,0,1.8,31-7.5,61.9-14.9,92.7-22.3-28,4.8-56.5,6.6-84.1,14.4,2.8-2.9,5.7-5.5,8.6-8.2.8-.8,1.9-1.7,2-2.7,1.5-10.2,3.1-20.4,4.2-30.7.4-4.1,1.4-8.5-.4-12.3-9.4.6-18.5,1.2-27.5,1.7-.8,0-1.7-.8-3.1-1.5,7.3-.6,13.8-1.2,20.3-1.7,0-.2,0-.5,0-.7-9.6.8-19.3,1.6-28.9,2.3,2.9,1.3,5.3,2.3,7.8,3.3.5.2,1.2.4,1.7.4,8.5-.8,16.9-1.7,24.8-2.5,0,1.4.2,2.6.3,3.7,0,0,0,0,0,0-7.1.9-14.1,1.9-21.7,2.9,6.8,7.8,9.5,16.5,9.4,26.1-.2,9.2-1.7,18.1-6,26.4.2-8,.8-16,.4-23.9-.4-9.2-4.5-17-10.9-23.5-3.6-3.7-7.9-4.5-12.7-3.1-5.3,1.5-9.8,4.2-12.5,9.1-10.1,18.8-11.4,38.1-1.2,57.2,5.5,10.4,15.6,11.8,24.8,4.4,2.2-1.8,4-4.2,5.9-6.4.5-.5.9-1.2,1.5-1.6-1,5.6-4.3,9.7-9.4,11.7-12,4.7-24.1,5.3-36.2.2-4.7-2-8.5-5.4-10.8-9.9-1.5-2.9-3.3-3.6-6.1-3.3-.8.1-1.7,0-2.7-.3,6.8,1.5,10.9-2.9,15.7-6.5-5.2-7-12.3-10.3-20.7-11.2-15.5-1.6-31-1-46.5.5-12.4,1.2-24.8.2-37.1-1.5-7.4-1-14.8-2.4-22.2-3.9,21.4,2,42.8,2.6,64.1-1.5-1.6,0-3.2.2-4.8.2-21,.7-42.1,1.2-62.9-2.9-5.7-1.1-11.1-3.3-16.6-5.1-.5-.2-.9-1.1-1-1.8-.5-4-1-8.1-1.5-12.5,5.3-.3,8.1-3.6,9.5-7.3,4-10.3,13-13.9,22-17.6,12.6-5.1,25.2-10,37.9-15,1.5-.6,2.8-1.4,4.3-2.2,0,0,0,0,0,0,.9-.3,1.8-.9,2.8-1,8.7-.7,17.4-1.3,26.1-2.2,2-.2,4.2-.9,6-1.9,11.1-6,22-12.4,33.1-18.3,10.9-5.9,22.9-8.1,35.1-9.4C196.9-.2,217.2-.5,237.5.6c3.6.2,7.3.5,11,1.2-2.9,1.1-5.8,1.9-8.6,3.2-1.9.9-3.7,2.2-5.1,3.7-4.3,4.7-8.5,9.5-12.5,14.4-1.8,2.1-3.3,4.5-4.8,6.9-2.7,4.4-2.3,5.6,2.9,7.6-1.1-.7-2.2-1.5-3.3-2.2.1-.4.3-.9.4-1.3,9.2-1.2,18.3-2.4,27.5-3.7,1.2-.2,2.5-.4,3.7-.6,0-.3,0-.6,0-.9-3,.1-5.9.2-8.9.4-2.7.2-5.3.8-8.1-.7-1.7-.9-4.4-.2-6.9-.2,3.3-3.4,6.8-7,10.3-10.5.6-.6,1.3-1.1,1.8-1.8,5.7-9,14.6-10.2,23.7-8.6,8,1.4,15.8,4.2,23.4,7.1,5.5,2.1,10.5,5.7,15.9,8,6.3,2.7,12.9,4.8,19.4,7.1,2.9,1,6,1.9,9,2.7,2.4.7,3.9,2,4.5,4.5,1.2,5.3,2.5,10.6,3.4,16.2-1.8-4.6-5.5-7.2-9.2-9.8-1.3-.9-1.4-3.6-1.7-5.6-.2-1.1.1-2.3.3-4.3-5.4.6-10.5.9-15.5,1.8-6,1.1-12.1,2.4-17.9,4.2-3.8,1.2-4.6-2.2-7-3.2-.3-.5-.4-1.3-.9-1.6-4.1-2.8-4.4-6.8-3.6-11.2.1-.6.2-1.3.2-1.9.6-5.7-.8-7.7-6.6-9.6,1.6,6.6,3.1,13.2,4.8,20.3-5.6,0-10.3.1-15.1,0-4.4-.1-8.7-.5-13.1-.8,0-.2,0-.4.1-.6,1.8-.8,3.6-1.7,5.3-2.5-.2-.3-.4-.6-.5-1-1.8,1.8-6.5-.8-6,4.5-4.6.3-9.1.6-13.6,1,0,.3,0,.7,0,1,1.1.1,2.2.3,3.3.3,12.4-.2,24.8-.3,37.2-.8,3.4-.1,6.3,0,8.5,2.9.7,1.2,1.4,2.3,2.4,3.9-1.2,0-2.3,0-3.4,0-18-.4-36-.9-54-1-7.7,0-15.4,1-23.1,1.5-.7,0-1.6,0-2.2.4-9.9,6-21.3,6.2-32.3,8.2-3.8.7-7.7.8-11.5,1.5-1.2.2-2.1,1.6-3.2,2.5,0-.2,0-.4.1-.6-.3,0-.6-.2-.8,0-4.8,4.4-10.9,2.9-16.8,3.2.5-.2,1.1-.4,1.6-.6-.2-.2-.3-.4-.5-.6-4.5,1.2-9.1,2.4-13.6,3.6,3.7.2,7.2-.1,10.7-.4,3.5-.2,7.1-.4,10.4-.5.3,1,.5,1.6.6,2.2-5,2.6-9.8,6.1-15.2,7.7-11.5,3.4-22.9,7.5-35.1,7.8-.6,0-1.3,0-1.9,0-5.6-.2-6.1-.7-4.9-5.8,1.2-.9,2.3-1.9,3.6-2.6,5.8-3.2,11.8-5.3,18.5-6.6,12.5-2.4,24.8-6.4,37.1-9.7.7-.2,1.4-.6,2.1-.9,0-.4,0-.8-.1-1.2-4.2,0-8.6-.6-12.7.1-9.4,1.7-18.7,4.1-28,6.2-2.4.5-4.8,1.3-7.2,1.7-2,.3-3.9,0-3.4-3.3-4.7,2.8-9,5.2-13.2,7.8-.9.6-2.1,1.8-2,2.5.1.9,1.5,1.7,2.5,2.2,1.2.6,2.5.9,4,1.4-1.4.9-2.7,1.5-3.7,2.4-.4.3-.4,1.1-.5,1.7ZM86.2,95.8c.3-.5,1-1,1-1.5,0-3.2,0-6.4,0-9.7,1.9.2,2.8.3,3.8.4,0-.4.2-.7.3-1.1-4.5-1.6-8.9-3.5-13.6-4.6-4.8-1.1-9.3-2.7-12.9-6.1-3.2-3-7-4.5-11.1-4.6-12.9-.2-25.9,0-38.8,0,4,0,7.9.3,11.9.6,8.4.6,17,.2,25.1,2.2,7.8,1.9,15,6.2,22.5,9.4-.2.8-.4,1.7-.7,2.6h-12.1c0-1.3-.2-2.5,0-3.6.4-1.4.5-1.3-.7-1.3-3.5,0-7,0-10.5-.2-.2,0-.3-.3-.6-.5,0-.8.2-1.7.3-2.9h5.4c0-.2,0-.3,0-.5-12.8-.8-25.6-1.6-38.5-2.4,2.7.3,4,1.5,2.8,4.4h-4c2,1,5.4,0,4.4,3.9q-6.1,0-6.8-5.8c0-.8-.1-1.5-.2-2.3l-1,.2c.8,5.3,1.7,10.6,2.6,15.9,0,.4.8,1,1.2,1.1,5.2.9,10.4,2,15.6,2.4,13.2,1,26.5,1.8,39.8,1.3,2.1,0,3,.6,2.7,2.4-9.6,0-19.2.4-28.8,0-9.7-.5-19.3-1.7-28.7-2.6.2,0,.6.3,1.1.4.6.2,1.3.2,1.9.4,19.6,3.2,39.3,3.8,59,3.1,2.5,0,5-.8,7.6-1.2h-.1ZM182.8,24.4c1.7,0,2.8.2,3.8.2,6.6,0,13.2-.5,19.7.2,6.5.7,10.8-1.4,13.7-7.2,1.2-2.5,3.2-4.6,4.8-6.9.9-1.3,1.9-2.7,3.3-4.7-8.3,0-15.7.2-23.1,0-3.7-.1-6.4.7-8.9,3.7-4,5-8.5,9.5-13.3,14.8ZM171.6,26.4c6.2-6.6,12.3-13.1,18.8-19.9-16.6-3-34.4,2.9-40.3,12.9,7.9-.3,15.3.9,21.6,7ZM127.9,32.4c-16.4,3.8-33,9.4-36,12.3,17-4.6,34.6-9.3,52.3-14.1-11.1,0-22.3-1.7-34.2.8,6.6.3,12.3.6,18,.9ZM159.2,78.7c0-.3-.2-.7-.3-1-22.4,2.6-44.8,5.2-66.7,7.8,1.9,3.9,3.7,7.5,5.5,11.2,0,0,1.1-.5,1-.8-.7-3.2-1.6-6.3-2.5-9.5,8.7-.9,17.5-1.9,26.3-2.8,11.3-1.2,22.5-2.5,33.8-3.8,1-.1,2-.7,2.9-1.1ZM92.9,54c.2.4.4.9.7,1.3,8.6-3.7,17.2-7.3,25.8-11l-.6-1.4c-8.6,3.7-17.2,7.3-25.9,11ZM69.5,40.8c9.7-2.7,19.4-5.4,29.2-8.1-10.2.8-19.7,4.4-29.2,8.1ZM255.7,24.5c0-.2,0-.4,0-.6h-11.2c0,.2,0,.4,0,.6h11.2ZM8.6,78.5c-.3,0-.6,0-.9.1.8,3.6,1.6,7.2,2.4,10.9.3,0,.6-.1.9-.2-.8-3.6-1.6-7.2-2.4-10.8ZM6.2,79.3c-.3,0-.5,0-.8,0,.5,3,1.1,6,1.6,9,.3,0,.5,0,.8-.1-.5-3-1.1-6-1.6-8.9Z"/>
  <path class="cls-2" d="M9.1,99.3c24.3,5.1,48.6,8.5,73.3,8,10.4-.2,20.7-.4,31.1-.4,8.1,0,15.6,2,21.5,8,.5.5,1.1,1.1,1.6,1.6.3.3.5.7,1,1.5-1.4.2-2.3.4-3.3.4-24.6-.3-49.2-.1-73.8-1.1-13.3-.5-26.5-2.9-39.8-4.6-2.3-.3-4.6-1.2-6.8-2.1-3.1-1.2-4.9-3.3-4.4-7,.2-1.3-.3-2.8-.4-4.4Z"/>
  <path class="cls-1" d="M89.5,71.3c.2-.6.1-1.4.5-1.7,1.1-.9,2.3-1.5,3.7-2.4-1.5-.5-2.9-.8-4-1.4-1-.5-2.3-1.3-2.5-2.2-.1-.7,1.1-2,2-2.5,4.2-2.6,8.5-5.1,13.2-7.8-.5,3.3,1.4,3.6,3.4,3.3,2.4-.4,4.8-1.2,7.2-1.7,9.3-2.1,18.6-4.5,28-6.2,4.1-.7,8.4-.1,12.7-.1,0,.4,0,.8.1,1.2-.7.3-1.3.7-2.1.9-12.4,3.3-24.6,7.3-37.1,9.7-6.7,1.3-12.7,3.4-18.5,6.6-1.3.7-2.4,1.7-3.6,2.6-1,.6-2,1.3-3.1,1.9Z"/>
  <path class="cls-2" d="M324.1,83.2c2.4-1.6,4.9-1.4,6.3.8,1,1.5,1.7,3.2,2.6,5,1.3-3.2.8-5.6-2.4-6.8-2.4-1-4.9-1.7-7.5-2.8,4.1-1.3,9-1.6,10.5-6.1-.3-.4-.6-.7-.8-1.1-1.1,1.3-2,2.8-3.3,3.7-1.3.9-3.1,1.1-5.3,1.8,2.2-5,4-9.4,6-13.9.4.4.8.8,1.2,1.2.1,0,.3-.1.4-.2-.5-1.1-1-2.3-1.6-3.3-1.9-2.9-4.1-5.3-8.1-4.7,2.6-1.8,5.3-.8,6.7,1.3,2.2,3.3,4.4,7,5.3,10.9,1.9,8.9,1.5,17.8-1.7,26.4-.7,1.8-1.5,3.6-2.7,5.1-2.6,3.4-5.9,3.7-9.4.8,2.9,1.4,5.7,1.9,8.1-1,1.7-2,3.1-3.7,1.3-6.6-2-3.4-2-8-5.6-10.6h.1Z"/>
  <path class="cls-2" d="M169.3,121.9c1.2,1.5,2.2,3.1,3.5,4.5,5.1,5.5,11.4,6.1,17.3,1.3,5.6-4.5,8.3-10.8,10.1-17.6,2.7-9.9,1.9-19.7-1.5-29.2-1.8-5.1-5-9.5-10.4-11.3-5.3-1.8-11.4,1.1-15.6,7.2-.9,1.3-1.7,2.7-2.7,4.3,1-5.9,6-11.8,11-13,6.4-1.5,12.1.7,16.1,6.4,4.9,7.1,6.5,15.2,6.4,23.7-.1,11.6-3,22.2-11.5,30.7-3.7,3.7-8.3,5.2-13.3,3.7-5.1-1.5-7.7-5.7-9.2-10.6Z"/>
  <path class="cls-2" d="M65.7,123c-3.4.9-8.6,2.8-13.9,3.7-11.1,1.8-21.3-.8-30.9-7.2,15.9,1.2,31.3,2.5,44.8,3.5Z"/>
  <path class="cls-3" d="M73.7,34.7s0,0,0,0c-16.8,3.3-32.1,10.8-47.8,17.4,2.1-1.6,4.5-3,6.3-5,7.2-7.8,17.1-8.8,26.5-10.8,3.7-.8,7.4-1.3,11.2-1.8,1.2-.2,2.5.1,3.8.2Z"/>
  <path class="cls-2" d="M314.9,54.6c0-.1,0-.2,0-.3,2.5-4.1,5.6-7.8,10.9-7.3,5.4.5,7.7,4.9,9,9.4,1.9,6.5,3.9,13.1,1.4,20.8-.4-2.4-.6-4.1-1-5.7-.3-1.7-.7-3.4-1.2-5-.9-3.1-1.9-6.2-3.1-9.2-1.4-3.5-4.3-5.4-7.6-6.5-2.7-.9-4.8.4-6.5,2.3-.6.6-1.1,1.3-1.6,2-.1-.2-.3-.3-.4-.5Z"/>
  <path class="cls-2" d="M180.1,93.4c-.3.8-.6,1.6-.9,2.5-2.8-2.2-5.6-4.4-8.4-6.6-1.8-1.4-2.3-2.9-1.2-5,1.6-2.8,3-5.6,4.9-9.1,3.4,6.2,6.7,11.5,5.5,18.3h0Z"/>
  <path class="cls-2" d="M170.8,123.4c-1.4-4.4-2.7-8.1-3.7-11.8-.1-.5.3-1.6.8-1.9,3.2-2.1,6.5-4,9.8-6,2.5,8.1-2.1,13.4-7,19.7Z"/>
  <path class="cls-2" d="M186.1,108.8c2.8,3.6,4.3,8.2,5,15.8-2.5,1.3-4.9,2.7-8,4.3v-22.4c.6.3,1.4.7,2.2,1.2.3.3.5.7.8,1Z"/>
  <path class="cls-2" d="M167.3,91.7c4,2,7.3,3.6,10.8,5.4-.4,1.8-.2,4.5-1.2,5-3,1.5-6.4,2.3-9.8,3-.8.2-2.4-.4-2-2.1.7-3.5,1.4-7.1,2.2-11.2Z"/>
  <path class="cls-2" d="M180.1,93.5c1.7-3.7,1.3-7.3,0-10.9-.5-1.2-.9-2.4-1.3-3.7-2.1-6.4-.8-8.3,6.5-8.6.1,7.5,0,15-2.6,22.2-.3.7-1.7,1-2.5,1.4,0-.1,0-.2,0-.3,0-.1,0-.2,0-.3,0,0,0,0,0,0Z"/>
  <path class="cls-2" d="M196.6,79.9c.8,3.9,1.5,7.4,2.3,11-4.5,2.6-9.1,5.2-13.6,7.9-2.3-1.9-2.3-3.5.3-5,4.4-2.5,7.3-6.2,9.3-10.8.4-.9,1-1.8,1.8-3.1Z"/>
  <path class="cls-2" d="M187.9,69.9c2.3,1.8,4.3,3.1,6,4.7.3.3.3,1.5,0,2-3.1,5.6-6.2,11.2-9.8,16.4,1.2-7.4,2.4-14.7,3.8-23.2Z"/>
  <path class="cls-2" d="M184.9,100.3c.9-.5,1.3-.9,1.8-1.1,4.3-1.6,8.6-3.2,13.4-5-.5,4.4-1,8.4-1.6,13-4.7-2.4-9-4.6-13.6-6.9Z"/>
  <path class="cls-2" d="M179.8,105.8c.5.5,1.4,1.1,1.5,1.6,0,7.1,0,14.3-.2,21.9-1.7-.5-2.4-.6-3.1-.9-4.7-2.2-5-3.1-2.6-7.7,2.4-4.6,5.2-9,4.4-14.8Z"/>
  <path class="cls-2" d="M186.1,108.8c-.3-.3-.5-.7-.8-1-.9-1.1-1.8-2.1-2.7-3.2.5-1.9,1.5-2.6,3.2-1.4,4.3,3,8.6,6,12.2,8.5-1.9,3-3.6,5.8-5.3,8.5-2.3-3.7-1.7-9.2-6.7-11.4Z"/>
  <path class="cls-3" d="M19.5,51.5c-3.5,7.2-8.3,12.7-14.2,17.5-.5-4.7,7.8-15.1,14.2-17.5Z"/>
  <path class="cls-1" d="M149.6,59.6c-.2-.6-.3-1.2-.6-2.2-3.3.2-6.9.3-10.4.5-3.5.2-7.1.6-10.7.4,4.5-1.2,9.1-2.4,13.6-3.6.2.2.3.4.5.6-.5.2-1.1.4-1.6.6,5.9-.3,11.9,1.2,16.8-3.2.1-.1.5,0,.8,0,0,.2,0,.4-.1.6-1.5,3.7-5,4.7-8.1,6.3Z"/>
  <path class="cls-2" d="M315,74.4c2.1,1,4.9,0,5.2,3.3.4,4.7-.6,6-5.2,7.1v-10.4Z"/>
  <path class="cls-2" d="M322.2,86.2c3.7,4.6,2.1,9.5,1.6,14.3-3.5-.7-4.4-1.9-3.7-4.9.7-3.1,1.4-6.2,2.1-9.4Z"/>
  <path class="cls-2" d="M323.2,72.7c-.4-.2-1.1-.4-1.2-.6-.6-2.4-.9-4.9-1.8-7.1-1.3-3.2-.5-5.2,3-6.8.8,5,1.8,9.8-.1,14.7h.1Z"/>
  <path class="cls-2" d="M324,83.1c1.4,3.7,2.7,7.4,4.2,11,1,2.7,0,4.2-2.9,5.3,0-1.3,0-2.5,0-3.6.3-3.9,0-7.7-2.5-11.1-.4-.5-.2-1.3-.3-2,.5.1,1.1.3,1.6.4,0,0-.1-.1-.1-.1Z"/>
  <path class="cls-2" d="M317.9,95.5c-4-4.2-3.4-6.8,2.6-11.9,1.2,4.5-1.2,7.9-2.6,11.9Z"/>
  <path class="cls-2" d="M320.8,75.5q-6-5.4-2.7-12.4c1.4,4.4,2.6,8.2,3.9,12-.4.1-.8.2-1.2.3Z"/>
  <path class="cls-2" d="M323.1,72.8c.7-1.9,1.8-3.8,2-5.8.3-2.8,0-5.7,0-8.9,2.7,1.1,3.7,2.3,2.9,5-1.3,4.4-1.8,9-5.5,13,.3-1.5.4-2.4.6-3.4,0,0-.1.1-.1.1Z"/>
  <path class="cls-2" d="M121.4,123.6h-44.7c0,0,0-.2,0-.3h44.7v.3Z"/>
  <path class="cls-2" d="M177.6,100.1c1.5-1.7,2.5-2.8,3.5-4,.7,1.2,2.1,2.5,2.1,3.7,0,1.4-1.5,2.6-2.3,3.9-.9-1-1.9-2.1-3.3-3.6Z"/>
  <path class="cls-2" d="M203.5,112.1c4.3-8.3,5.8-17.2,6-26.4.2-9.6-2.6-18.2-9.4-26.1,7.6-1,14.7-1.9,21.7-2.9-1.4.5-2.7,1.2-4.1,1.5-4.7.8-9.5,1.4-14.5,2.1,11,15.6,8.9,31.9,4,48.6,4.2-4,8.2-7.7,12-11.7,1.3-1.4,2.5-3.3,2.9-5.2,1.5-7.8,2.9-15.7,4-23.6.6-4.4.6-8.9.8-13.4-2,.7-3.5,1.2-5.1,1.7,0-1.2-.2-2.3-.3-3.7-7.9.8-16.3,1.7-24.8,2.5-.6,0-1.2-.1-1.7-.4-2.5-1-4.9-2.1-7.8-3.3,9.7-.8,19.3-1.6,28.9-2.3,0,.2,0,.5,0,.7-6.5.6-13,1.1-20.3,1.7,1.4.7,2.3,1.6,3.1,1.5,9-.5,18.1-1.1,27.5-1.7,1.8,3.8.9,8.2.4,12.3-1.1,10.3-2.7,20.5-4.2,30.7-.1,1-1.2,1.9-2,2.7-2.9,2.7-5.8,5.3-8.6,8.2,27.6-7.8,56.1-9.6,84.1-14.4-30.8,7.4-61.6,14.9-92.7,22.3,0-.6,0-1.2,0-1.8,0,0,0,.1,0,.1Z"/>
  <path class="cls-2" d="M86.3,95.7c-2.5.4-5,1.1-7.6,1.2-19.8.7-39.5.2-59-3.1-.6-.1-1.3-.2-1.9-.4-.5-.1-.9-.3-1.1-.4,9.4.9,19,2.1,28.7,2.6,9.5.5,19.1,0,28.8,0,.3-1.8-.7-2.5-2.7-2.4-13.3.4-26.6-.3-39.8-1.3-5.2-.4-10.4-1.5-15.6-2.4-.5,0-1.2-.7-1.2-1.1-.9-5.3-1.7-10.6-2.6-15.9l1-.2c0,.8.1,1.5.2,2.3q.7,5.7,6.8,5.8c.9-3.9-2.5-2.9-4.4-3.9h4c1.2-2.9-.2-4.1-2.8-4.4,12.8.8,25.6,1.6,38.5,2.4,0,.2,0,.3,0,.5h-5.4c-.1,1.1-.2,2.1-.3,2.9.3.3.5.5.6.5,3.5,0,7,.2,10.5.2,1.3,0,1.1-.1.7,1.3-.3,1.1,0,2.3,0,3.6h12.1c.3-1,.5-1.9.7-2.6-7.5-3.3-14.7-7.6-22.5-9.4-8.1-1.9-16.7-1.5-25.1-2.2-4-.3-7.9-.5-11.9-.6,12.9,0,25.9-.1,38.8,0,4.1,0,7.9,1.6,11.1,4.6,3.6,3.4,8.1,4.9,12.9,6.1,4.6,1.1,9,3,13.6,4.6,0,.4-.2.7-.3,1.1-1,0-1.9-.2-3.8-.4,0,3.3,0,6.5,0,9.7,0,.5-.6,1-1,1.5.3-2-.4-2.9-2.6-2.7-2.7.2-5.5,0-8.3,0-.2.3-.4.7-.6,1,.7.7,1.3,2,2,2.1,3.2,0,6.4-.3,9.5-.5ZM85.8,92.6c.3-3.2.6-6,.9-9-3.9-1.1-7.5-2.1-11.2-3.1-.2.2-.5.4-.7.6.5,1,1.4,2,1.3,2.9-.2,1.2-1.2,2.3-2.3,4.1h9c0,.2,0,.4,0,.6h-8.3c.1,1.5.2,2.6.3,3.9h11ZM73.7,89h-12.1c-.2.3-.5.6-.7.8.8.9,1.5,2.6,2.4,2.6,3.4.3,6.8.1,10.4.1v-3.6ZM61.5,87.9h12.1v-3.7c-4.1.2-8.1.5-12.1.7v3ZM49.5,83.5h10.7c.2-1.3.4-2.4.5-3.7h-11c0,1.3-.1,2.3-.2,3.7ZM48.4,79.7c-3.4-.2-6.3-.3-9.4-.4v3.7c3.2.2,6.3.3,9.4.5v-3.8ZM49.6,88.9c.4,1.3.7,2.3,1.1,3.3h10.3c-.3-1.2-.5-2.2-.7-3.3h-10.6ZM38.7,78.3h9.9c.2-1,.4-2,.6-3.1h-10.1c0,1-.2,1.8-.3,3.1ZM40.2,91.7c3.1.2,6.1.3,9.3.5-.3-1.4-.4-2.3-.6-3.3-3.1-.2-6.1-.4-9.2-.7.2,1.2.4,2.1.6,3.5ZM49.9,84.8c-.6,2.1,0,3,2.1,2.9,2.6,0,5.3,0,8.1,0v-2.9h-10.2ZM38.6,84.3c.7,1.3,1.1,2.7,1.7,2.8,2.6.4,5.3.3,8.2.5-.1-1.3-.2-2.2-.3-3.3h-9.7ZM29.8,82.2c2.9.2,5.4.4,8.1.6,0-1.4-.1-2.4-.2-3.6-2.7-.1-5.2-.3-7.9-.4v3.4ZM29.5,77.8h8.5v-3.3h-8.5v3.3ZM37.9,87c.9-4.1-.1-3.2-8-3.7.2,1.1.4,2.1.7,3.2,2.5.1,4.8.3,7.3.4ZM38.7,88.2c-2.8-.3-5.3-.5-7.9-.8.5,3.9,1.7,4.4,8.5,3.8-.2-.9-.4-1.9-.6-3ZM28.3,77.6v-3.6c-2.5-.2-4.7-.5-7.2-.7.1,1.5.2,2.6.3,3.7,2.4.2,4.5.3,6.9.5ZM30.3,90.6c-.9-3.6-1.8-4-7.6-3.7,0,3.5,1.1,4.1,7.6,3.7ZM22.1,82v3.5c2.4.3,4.6.5,7.1.8-.1-1.4-.2-2.3-.4-3.3-2.3-.3-4.4-.7-6.7-1ZM21.5,77.9c-.1,3.6,1.1,4.2,7,3.6,0-1-.1-2-.2-2.9-2.4-.3-4.5-.5-6.8-.7ZM21.7,89.4c-.5-3.9-.6-3.9-6.5-4,.4,3.9,1,4.3,6.5,4ZM14.2,80.6c.8,4.3,1.8,4.9,6.5,4.1,0-.9-.1-1.9-.2-2.9-2.1-.4-4-.7-6.3-1.1Z"/>
  <path class="cls-1" d="M182.8,24.4c4.7-5.2,9.3-9.8,13.3-14.8,2.5-3,5.2-3.9,8.9-3.7,7.4.3,14.8,0,23.1,0-1.4,2.1-2.4,3.4-3.3,4.7-1.6,2.3-3.6,4.4-4.8,6.9-2.9,5.8-7.2,7.9-13.7,7.2-6.5-.7-13.1-.2-19.7-.2-1,0-2.1,0-3.8-.2Z"/>
  <path class="cls-1" d="M171.6,26.4c-6.3-6.1-13.7-7.3-21.6-7,5.9-10.1,23.8-15.9,40.3-12.9-6.5,6.9-12.6,13.4-18.8,19.9Z"/>
  <path class="cls-1" d="M285.1,36.3c-2.2-2.8-5.1-3-8.5-2.9-12.4.5-24.8.6-37.2.8-1.1,0-2.2-.2-3.3-.3,0-.3,0-.7,0-1,4.5-.3,9-.6,13.6-1-.5-5.2,4.2-2.6,6-4.5.2.3.4.6.5,1-1.8.8-3.6,1.7-5.3,2.5,0,.2,0,.4-.1.6,4.4.3,8.7.6,13.1.8,4.7.1,9.5,0,15.1,0-1.7-7.1-3.2-13.7-4.8-20.3,5.8,1.9,7.2,3.9,6.6,9.6,0,.6-.1,1.3-.2,1.9-.8,4.4-.5,8.4,3.6,11.2.4.3.6,1.1.9,1.6,0,0,0,0,0,0Z"/>
  <path class="cls-1" d="M127.9,32.4c-5.7-.3-11.4-.6-18-.9,12-2.5,23.1-.9,34.2-.8-17.7,4.7-35.3,9.5-52.3,14.1,3-2.9,19.7-8.5,36-12.3Z"/>
  <path class="cls-2" d="M159.2,78.7c-1,.4-1.9.9-2.9,1.1-11.3,1.3-22.5,2.5-33.8,3.8-8.8,1-17.6,1.9-26.3,2.8.9,3.2,1.8,6.3,2.5,9.5,0,.3-1,.9-1,.8-1.8-3.7-3.6-7.3-5.5-11.2,21.9-2.6,44.3-5.2,66.7-7.8,0,.3.2.7.3,1Z"/>
  <path class="cls-1" d="M92.9,54c8.6-3.7,17.2-7.3,25.9-11l.6,1.4c-8.6,3.7-17.2,7.3-25.8,11-.2-.4-.4-.9-.7-1.3Z"/>
  <path class="cls-1" d="M69.5,40.8c9.4-3.8,18.9-7.3,29.2-8.1-9.7,2.7-19.4,5.4-29.2,8.1Z"/>
  <path class="cls-1" d="M255.7,24.5h-11.2c0-.2,0-.4,0-.6h11.2c0,.2,0,.4,0,.6Z"/>
  <path class="cls-2" d="M8.6,78.5c.8,3.6,1.6,7.2,2.4,10.8-.3,0-.6.1-.9.2-.8-3.6-1.6-7.2-2.4-10.9.3,0,.6,0,.9-.1Z"/>
  <path class="cls-2" d="M6.2,79.3c.5,3,1.1,6,1.6,8.9-.3,0-.5,0-.8.1-.5-3-1.1-6-1.6-9,.3,0,.5,0,.8,0Z"/>
  <path class="cls-2" d="M221.8,56.8c1.5-.5,3.1-1,5.1-1.7-.3,4.5-.2,9-.8,13.4-1.1,7.9-2.4,15.7-4,23.6-.4,1.9-1.5,3.8-2.9,5.2-3.8,4-7.8,7.7-12,11.7,4.9-16.7,6.9-33-4-48.6,5.1-.7,9.8-1.3,14.5-2.1,1.4-.2,2.7-1,4.1-1.5,0,0,0,0,0,0Z"/>
  <path class="cls-2" d="M85.8,92.6h-11c-.1-1.3-.2-2.4-.3-3.9h8.3c0-.2,0-.4,0-.6h-9c1.1-1.8,2.1-2.9,2.3-4.1.1-.9-.8-1.9-1.3-2.9.2-.2.5-.4.7-.6,3.7,1,7.4,2.1,11.2,3.1-.3,3-.6,5.8-.9,9Z"/>
  <path class="cls-2" d="M73.7,89v3.6c-3.5,0-7,.2-10.4-.1-.9,0-1.6-1.7-2.4-2.6.2-.3.5-.6.7-.8h12.1Z"/>
  <path class="cls-2" d="M61.5,87.9v-3c4-.2,8-.5,12.1-.7v3.7h-12.1Z"/>
  <path class="cls-2" d="M49.5,83.5c0-1.4.1-2.4.2-3.7h11c-.2,1.3-.3,2.4-.5,3.7h-10.7Z"/>
  <path class="cls-2" d="M48.4,79.7v3.8c-3.1-.2-6.2-.3-9.4-.5v-3.7c3.1.1,6.1.3,9.4.4Z"/>
  <path class="cls-2" d="M49.6,88.9h10.6c.2,1.1.5,2.1.7,3.3h-10.3c-.3-1.1-.6-2-1.1-3.3Z"/>
  <path class="cls-2" d="M38.7,78.3c.1-1.3.2-2.2.3-3.1h10.1c-.2,1.2-.4,2.1-.6,3.1h-9.9Z"/>
  <path class="cls-2" d="M40.2,91.7c-.2-1.4-.4-2.3-.6-3.5,3.2.2,6.1.4,9.2.7.2,1,.4,2,.6,3.3-3.2-.2-6.1-.3-9.3-.5Z"/>
  <path class="cls-2" d="M49.9,84.8h10.2v2.9c-2.8,0-5.5,0-8.1,0-2.1,0-2.7-.8-2.1-2.9Z"/>
  <path class="cls-2" d="M86.3,95.7c-3.2.2-6.4.5-9.5.5-.7,0-1.3-1.3-2-2.1.2-.3.4-.7.6-1,2.8,0,5.5.2,8.3,0,2.2-.2,2.9.7,2.6,2.7,0,0,.1-.1.1-.1Z"/>
  <path class="cls-2" d="M38.6,84.3h9.7c0,1.1.2,2,.3,3.3-2.9-.1-5.6-.1-8.2-.5-.6,0-1-1.5-1.7-2.8Z"/>
  <path class="cls-2" d="M29.8,82.2v-3.4c2.7.1,5.2.3,7.9.4,0,1.2.1,2.2.2,3.6-2.7-.2-5.2-.4-8.1-.6Z"/>
  <path class="cls-2" d="M29.5,77.8v-3.3h8.5v3.3h-8.5Z"/>
  <path class="cls-2" d="M37.9,87c-2.5-.1-4.9-.3-7.3-.4-.2-1.2-.5-2.2-.7-3.2,7.9.4,8.9-.5,8,3.7Z"/>
  <path class="cls-2" d="M38.7,88.2c.2,1.1.4,2.1.6,3-6.8.7-8,.2-8.5-3.8,2.6.2,5.1.5,7.9.8Z"/>
  <path class="cls-2" d="M28.3,77.6c-2.4-.2-4.6-.3-6.9-.5,0-1.2-.2-2.3-.3-3.7,2.5.2,4.8.5,7.2.7v3.6Z"/>
  <path class="cls-2" d="M30.3,90.6c-6.5.4-7.6-.2-7.6-3.7,5.8-.4,6.7,0,7.6,3.7Z"/>
  <path class="cls-2" d="M22.1,82c2.4.4,4.5.7,6.7,1,.1,1,.2,2,.4,3.3-2.5-.3-4.7-.5-7.1-.8v-3.5Z"/>
  <path class="cls-2" d="M21.5,77.9c2.3.2,4.4.5,6.8.7,0,.9.1,1.9.2,2.9-5.9.6-7.1,0-7-3.6Z"/>
  <path class="cls-2" d="M21.7,89.4c-5.5.2-6.1-.1-6.5-4,5.9.1,5.9.2,6.5,4Z"/>
  <path class="cls-2" d="M14.2,80.6c2.3.4,4.3.8,6.3,1.1,0,1.1.1,2,.2,2.9-4.7.8-5.7.2-6.5-4.1Z"/>
</svg>