<?xml version="1.0" encoding="UTF-8"?>
<svg id="Camada_1" xmlns="http://www.w3.org/2000/svg" viewBox="0 0 356.9 101.2">
  <defs>
    <style>
      .cls-1 {
        fill: #009640;
      }
    </style>
  </defs>
  <g id="gI4pRQ">
    <g>
      <path class="cls-1" d="M37.5,74.7c-7.6.2-13.7-3.2-19.4-7.8-3.2-2.6-6.7-4.9-9.9-7.5-1.7-1.3-3.2-2.8-4.6-4.4-3.1-3.7-4.8-7.6-2.6-12.7,1.6-3.8,1.9-8.3,5.7-11.2-.9-1-1.7-1.7-2.3-2.5-.5-.7-.9-1.6-1.3-2.4.8-.3,1.6-.9,2.5-.9,4-.2,8.1-.4,12.2-.5,9.2-.3,18.3-.4,27.5-.9,2.3-.1,4.8-.8,6.9-1.8,10.1-4.9,20-10,30-15,7.4-3.7,15.4-5.8,23.6-6.1C126,.6,146.2,0,166.5,0c10.5,0,21,1.1,31.5,2.1,5.9.5,11.1,3.2,15.9,6.6,7.5,5.3,14.9,10.7,22.4,16,1.1.8,2.8.9,4.2,1,1.2.1,2.5-.2,3.7-.2,15.3,0,30.5,0,45.8,0,5.2,0,5.7.7,4.1,5.5,19.4,2.1,39.4.4,57.7,8.8l-.2,1.1c-1.4-.2-2.8-.3-4.1-.8-9.7-3.7-19.8-4.7-29.5-5.5,5.6,1.7,11.5,3.6,17.5,5.4-.1.4-.2.8-.3,1.2-15.4-5.6-31.6-6-47.7-8.2l4.5-.3c0-.2,0-.5.1-.7-.8-.2-1.5-.6-2.3-.6-3.3,0-6.6.1-9.8.2-3.7,0-4-.3-3-4.3-15,1.2-30.2-2.4-44.8,3.7,0-.2-.2-.4-.2-.7.7-.8,1.4-1.6,2.5-2.9-1.4-.2-2.2-.4-3.1-.4-14.9.2-29.7,1.2-44.3,4.4-2,.4-3.6.2-4.9-1.4-5.4-6.4-10.8-12.8-16.1-19.3-2.2-2.7-1.7-4,1.8-4.4,5.5-.6,11-1,16.4-1.1,5.6-.2,11.2,0,16.9-.3-1.6-.3-3.1-.8-4.7-1-19.2-2-38.5-2.4-57.8-2-10.1.2-20.3.7-30.4,1.5-4.9.4-10.1,1.2-14.6,3.2-13.2,5.9-26,12.4-39,19.3,19.8-2.8,37.1,5.2,55,11,0,.3-.1.5-.2.8-8.7-2.3-17.5-4.3-26.2-6.9-8.6-2.5-17.2-2.9-26.1-2.3-13.3.8-26.6,1.4-39.9,2.1-6.4.3-9.4,2.7-11.1,8.9-.7,2.4-1.3,4.8-2.2,7.7,12.9.3,25.4.6,38.8.9-3.2,3-6,5.3-5.8,10.2,2.6-6.9,7.2-9.1,13.5-8.6,1.2.1,2.5.2,3.8,0,9.4-.5,17.3,2.3,23.1,10.1-1.6-5.1-5.5-8.1-10-10.5,0-.2.1-.5.2-.7,52.4,1,104.9,2.1,157.3,3.1,0,.2.2.5.3.7-5.2,2.1-9.3,5.3-11.1,10.8,5.1-7.5,12.5-9.8,21.1-9.5,4.3.2,8.7.2,13,.7,5.9.6,10.7,3.7,14.6,8.1.5.6,1,1.2,1.7,1.8-2-5.3-6-8.6-10.8-11.4h47.4c0,3-.1,5.5,0,8,.2,4.3,2.6,6.5,6.9,6.2,10.5-.7,21-1.2,31.4-2.5,5.1-.6,10-2.9,14.9-4.4,1.5-.5,1.4-1.4.3-2.3-.6-.5-1.2-.9-1.8-1.3.2-.2.5-.5.7-.7,1.2,1.3,3.2,2.4,3.3,3.8.1,1.3-1.3,3.3-2.6,4.2-2.3,1.6-5.1,2.6-7.7,4-3.5,1.8-4.9,2.8-2.6,7,3.3,6.1,3.1,6.2-3.3,8.4-.6.2-1.3.4-1.9.8-5.2,3.4-11.1,4.1-17.1,4.4-1.2,0-2.6.6-3.7,1.3-9.8,6.6-22.4,6.4-32-.5-.9-.6-2.2-.8-3.4-1-1-.1-2.1.2-3.2.2-6.2,0-11.3,1.4-16.3,5.9-10.6,9.5-31.6,9.7-41.7-1.9-.8-.9-2.5-1.3-3.8-1.4-13.6-.5-27.2-.9-40.8-1.4-9.9-.3-19.9-.7-29.8-1-1.6,0-3.2.4-4.7,1-7.8,3.4-15.3,3.2-22.8-.8-1.4-.7-3-1.3-4.6-1.3-9.5-.4-19.1-.6-28.7-.8-1.3,0-2.8.6-3.7,1.4-3.8,3.6-8.1,5.5-13.3,5.5-4.2,0-8.5.8-12.7.3-8.9-1.1-14.6-6.5-17.5-14.8-.3-.7-.4-1.5-.6-2.2-.2-.7-.5-1.4-.7-2.3ZM240.2,58.1c-9,0-16.4,7.8-16.4,17.2,0,9.3,7.6,17.2,16.5,17.1,9,0,16.4-7.9,16.4-17.2,0-9.4-7.4-17.1-16.5-17ZM71.4,70.1c-.2-4.9-1.6-9.3-5.1-12.9-4.8-4.9-12.2-4.9-17.1,0-6.6,6.6-6.7,18.8-.3,25.5,5,5.3,12.3,5.4,17.4.2,3.5-3.6,4.8-8,5-12.8ZM341.2,73.6c-13,11.7-28.2,8.7-43.5,7.5,1.4,2,2.8,3.7,3.9,5.6,1,1.8,2.3,1.9,4.1,1.5,3.3-.7,6.6-1.5,10-1.5,10,0,19.4-2.1,28.3-7.3-.8-1.8-1.8-3.8-2.8-5.9ZM231.3,24.9c0-.2.2-.4.2-.7-6.7-4.8-13.3-9.8-20.2-14.3-4.5-3-9.8-2.8-15.6-2.3,7.7,5.8,15,11.3,22.2,16.7.5.4,1.2.5,1.9.6,3.8,0,7.7,0,11.6,0ZM212.6,85.8c-1.4-.2-2-.3-2.5-.3-27.2-.9-54.4-1.8-81.5-2.7-13.4-.4-26.8-.9-40.2-1.3-1,0-1.9.3-2.9.4,0,.4,0,.7.1,1.1,41.7,1.4,83.3,2.7,125,4,.4,0,.9-.5,2-1.3ZM82,71.2c0,.4,0,.8,0,1.2,43,1,86.1,1.9,129.1,2.9,0-.4,0-.8,0-1.2-43-1-86.1-1.9-129.1-2.9ZM188.3,7.1c0,.3-.2.6-.2.8,7.2,5.4,14.4,10.9,21.6,16.3.7.5,1.8.5,3.4.9-.6-.8-.8-1.1-1-1.2-6.9-5.2-13.8-10.5-20.7-15.7-.8-.6-2-.7-3.1-1.1ZM271.2,56.2c.1.5.2,1.3.3,1.3,5.9.4,11.8.7,17.7,1.1.1-.3.3-.6.4-.9-.6-.5-1.1-1.4-1.7-1.4-5.5-.1-11.1,0-16.8,0ZM268.5,76.3c3.2,1.6,15.9-.3,19.3-2.1-6.2.7-12.7,1.4-19.3,2.1ZM20,52.9c0-.2,0-.4.1-.6h-11.8c0,.2,0,.4,0,.6h11.7Z"/>
      <path class="cls-1" d="M145.2,33.9c-10.5-.3-21.1.1-31.5-1.2-9.1-1.2-17.9-4.3-26.8-6.7-2.1-.6-2.4-2.2-.6-3.3,6.7-4.5,13.4-9.2,20.5-13,3.3-1.8,7.6-2.1,11.5-2.1,11.3-.3,22.6-.1,33.8,0,3.3,0,6.2,1.3,8.4,3.9,5.3,6.1,10.7,12.1,16,18.3.7.9,1.5,2.7,1.1,3.4-.5.8-2.2,1.3-3.4,1.4-9.6.1-19.3,0-28.9,0,0-.2,0-.4,0-.6ZM107.2,14.2h52c-1.7-2.5-4.3-3.9-7.4-3.9-11.3,0-22.6-.1-33.8.1-3.7,0-7.8.2-10.8,3.8ZM93.4,21.3c0,.4,0,.7,0,1.1,24.6.5,49.2,1,73.8,1.5-.5-1.1-1.2-1.9-1.8-1.9-24,0-48-1-72-.7Z"/>
      <path class="cls-1" d="M302,57.5c.9-3.1,1.5-6.3,2.7-9.3.5-1.1,2.2-2.3,3.4-2.4,13.8-1.5,27.6-2.7,41.4-4.1,2.4-.2,3.8.3,3.3,3.1-.6,3.3-.9,6.7-1.8,9.9-.3,1.1-1.9,2.3-3.2,2.6-11.9,3.5-24.2,4.5-36.5,5.7-1.4.1-2.9.3-4.3.5-3.7.4-4.4-.2-4.5-4,0-.6,0-1.2,0-1.7-.2,0-.4-.1-.6-.2ZM307.9,51.8c-3.4,1.4-4.4,4.4-2.7,7.7,1,1.9,2.3,2.1,3.4.2,1.8-2.9,2-6.2.9-9.4-.3-.7-1.2-1.3-1.8-1.9l-.5.5c.2,1,.5,1.9.7,2.9ZM348,44.4c-.3,1.2-.3,2.5-.9,3.2-1.9,2.4-2,4.9,0,7.2,2.8-2.4,3.3-7.6.8-10.4ZM332.6,48c-2,6.4-2.1,9-.5,10.4.1-3.2.3-6.4.5-10.4Z"/>
      <path class="cls-1" d="M302.5,44.5c-7.2-1.6-14.2-3.8-21.4-4.5-12.8-1.3-25.8-1.9-38.7-2.5-19.7-.9-39.3-1.6-59-2.5-.6,0-1.3-.2-2-.7.7,0,1.3-.3,2-.2,27.2.6,54.4,1,81.6,1.8,11.1.3,22.1,2,32.5,6.2,1.7.7,3.3,1.6,4.9,2.4Z"/>
      <path class="cls-1" d="M274.2,32c-12.2-.4-24.4-.8-36.5-1.2,3.3-1.4,32.7-1.3,36.5.1v1Z"/>
      <path class="cls-1" d="M205.3,49.2c.9-3.4,1.9-6.4,2.6-9.5.4-1.8,1.5-2,2.7-1.5.6.3,1.1,1.7.9,2.5-.4,2.3-1.1,4.7-1.8,7-.7,2.3-2.3,2.1-4.4,1.6Z"/>
      <path class="cls-1" d="M211,49.3c.9-3.2,1.6-6.4,2.6-9.5.3-.7,1.6-1.1,2.4-1.6.4.9,1.2,1.8,1.1,2.7-.3,2.1-1.1,4.1-1.6,6.1-.6,2.7-2.1,3.1-4.6,2.3Z"/>
      <path class="cls-1" d="M199.7,49.2c.9-3.5,1.7-6.9,2.9-10.2.2-.5,1.7-.8,2.6-.8.3,0,.9,1.4.8,2-.5,2.5-1.3,5-1.9,7.5-.6,2.2-2.2,1.9-4.3,1.5Z"/>
      <path class="cls-1" d="M194.1,48.9c.9-3.2,1.6-6.4,2.7-9.5.2-.7,1.7-1,2.5-1.5.3.8,1.1,1.7,1,2.4-.3,2.1-1.1,4.1-1.6,6.1-.5,2.7-2.1,3.1-4.6,2.4Z"/>
      <path class="cls-1" d="M240.2,58.1c9.1,0,16.5,7.6,16.5,17,0,9.4-7.4,17.2-16.4,17.2-8.9,0-16.5-7.8-16.5-17.1,0-9.4,7.4-17.1,16.4-17.2ZM232,75.2c.9,1.3,1.5,3,2.4,3.2,1.9.4,4.9-2.4,4.9-3.9,0-1.5-3.7-4.7-4.8-3.9-1.2.8-1.6,2.8-2.5,4.7ZM244,82.2c-1.7-1.1-3-2.6-4.1-2.5-1.7.3-3.1,1.7-4.7,2.7,1.9,1.6,3.7,3.1,5.6,4.7.9-1.4,1.8-2.8,3.2-4.9ZM242.9,62c-1.7.7-2.8.9-3.7,1.5-1.2.9-2.2,2.2-3.3,3.3,1.2.9,2.3,1.9,3.6,2.6,1.9,1,4-.3,4-2.4,0-1.5-.3-3-.6-5ZM254,67.3c-2.1-1.7-3.9-3.2-5.8-4.6-.3-.2-1.9.5-1.9.7.2,2-.6,4.1,1.8,5.6,2.3,1.4,3.7.6,5.9-1.8ZM247.2,87.9c1.6-1.1,3.5-2,5-3.4.4-.3.2-1.9-.3-2.6-1.1-1.7-3.1-2.2-4.3-.7-1.2,1.5-1.6,3.7-2.2,5.6,0,.1.8.5,1.8,1.1ZM249.3,74.8c-.2-1.9-1.1-3.2-3.2-3.2-2.1,0-3.4,1.6-3,3.4.3,1.2,1.8,2.8,3,3.1,2,.4,3-1.2,3.2-3.2ZM254.8,71.5c-.3-.2-.7-.4-1-.6-.7,1.3-1.7,2.6-2.1,4.1-.7,2.4,1,3.6,3.2,5v-8.5Z"/>
      <path class="cls-1" d="M71.4,70.1c-.1,4.9-1.5,9.3-5,12.8-5.1,5.2-12.4,5.1-17.4-.2-6.4-6.7-6.3-19,.3-25.5,4.8-4.9,12.3-4.9,17.1,0,3.5,3.6,4.9,7.9,5.1,12.9ZM57,76.3c0,.4,0,.8,0,1.3,1.7,2.1,3.5,4,6.9,3.9,0-2.4,1.9-5.2-1-6.3-1.5-.6-3.9.7-5.9,1.2ZM55,73.9c.3.1.7.2,1,.3,1.5-1.4,4.6-1.2,4.4-4.4-.2-3-3.1-2.9-5.3-4.3v8.4ZM62.4,56.8c-2.5,2.1-4.4,3.7-6.8,5.7,2.7,1.3,4.4,3.7,6.8,1.9,2.5-1.9.3-4.3,0-7.6ZM70.2,69.4c-1.7-1.4-2.8-2.2-3.8-3.1-.9,1.1-2.4,2.2-2.4,3.3,0,1.1,1.6,2.1,2.5,3.2,1-.9,2-1.8,3.7-3.4ZM68.1,64.8c.4-.2.8-.5,1.1-.7-.9-1.7-1.9-3.3-2.8-5l-.9.5c.9,1.7,1.7,3.5,2.6,5.2Z"/>
      <path class="cls-1" d="M341.2,73.6c1,2,1.9,4.1,2.8,5.9-8.9,5.2-18.3,7.2-28.3,7.3-3.3,0-6.7.8-10,1.5-1.8.4-3.1.2-4.1-1.5-1.1-1.9-2.5-3.6-3.9-5.6,15.3,1.3,30.5,4.2,43.5-7.5Z"/>
      <path class="cls-1" d="M231.3,24.9c-3.9,0-7.7,0-11.6,0-.6,0-1.4-.2-1.9-.6-7.2-5.4-14.4-10.9-22.2-16.7,5.9-.5,11.1-.7,15.6,2.3,6.9,4.6,13.5,9.5,20.2,14.3,0,.2-.2.4-.2.7Z"/>
      <path class="cls-1" d="M212.6,85.8c-1.2.8-1.6,1.3-2,1.3-41.7-1.3-83.3-2.7-125-4,0-.4,0-.7-.1-1.1,1-.1,1.9-.5,2.9-.4,13.4.4,26.8.8,40.2,1.3,27.2.9,54.4,1.8,81.5,2.7.6,0,1.1.1,2.5.3Z"/>
      <path class="cls-1" d="M82,71.2c43,1,86.1,1.9,129.1,2.9,0,.4,0,.8,0,1.2-43-1-86.1-1.9-129.1-2.9,0-.4,0-.8,0-1.2Z"/>
      <path class="cls-1" d="M188.3,7.1c1,.3,2.2.5,3.1,1.1,6.9,5.2,13.8,10.4,20.7,15.7.2.2.3.4,1,1.2-1.5-.4-2.7-.3-3.4-.9-7.2-5.4-14.4-10.8-21.6-16.3,0-.3.2-.6.2-.8Z"/>
      <path class="cls-1" d="M271.2,56.2c5.7,0,11.3,0,16.8,0,.6,0,1.1.9,1.7,1.4-.1.3-.3.6-.4.9-5.9-.3-11.8-.7-17.7-1.1-.1,0-.2-.8-.3-1.3Z"/>
      <path class="cls-1" d="M268.5,76.3c6.5-.7,13-1.4,19.3-2.1-3.3,1.8-16,3.7-19.3,2.1Z"/>
      <path class="cls-1" d="M20,52.9h-11.7c0-.2,0-.4,0-.6h11.8c0,.2,0,.4-.1.6Z"/>
      <path class="cls-1" d="M107.2,14.2c3-3.6,7-3.7,10.8-3.8,11.3-.3,22.6-.2,33.8-.1,3.2,0,5.7,1.4,7.4,3.9h-52Z"/>
      <path class="cls-1" d="M93.4,21.3c24-.3,48,.7,72,.7.7,0,1.3.8,1.8,1.9-24.6-.5-49.2-1-73.8-1.5,0-.4,0-.7,0-1.1Z"/>
      <path class="cls-1" d="M307.9,51.8c-.2-.9-.5-1.9-.7-2.9l.5-.5c.6.6,1.6,1.1,1.8,1.9,1.1,3.2.9,6.5-.9,9.4-1.1,1.8-2.4,1.7-3.4-.2-1.7-3.3-.7-6.2,2.7-7.7Z"/>
      <path class="cls-1" d="M348,44.4c2.5,2.8,2,8.1-.8,10.4-2-2.3-1.9-4.8,0-7.2.6-.7.6-2,.9-3.2Z"/>
      <path class="cls-1" d="M332.6,48c-.2,4-.3,7.1-.5,10.4-1.6-1.4-1.6-4,.5-10.4Z"/>
      <path class="cls-1" d="M232,75.2c.9-1.8,1.3-3.9,2.5-4.7,1.2-.8,4.8,2.5,4.8,3.9,0,1.5-3.1,4.3-4.9,3.9-.9-.2-1.5-1.9-2.4-3.2Z"/>
      <path class="cls-1" d="M244,82.2c-1.4,2.1-2.3,3.5-3.2,4.9-1.9-1.6-3.7-3.1-5.6-4.7,1.5-.9,3-2.4,4.7-2.7,1.1-.2,2.4,1.4,4.1,2.5Z"/>
      <path class="cls-1" d="M242.9,62c.2,2,.6,3.5.6,5,0,2.1-2.1,3.4-4,2.4-1.3-.7-2.4-1.7-3.6-2.6,1.1-1.1,2.1-2.4,3.3-3.3.9-.7,2.1-.9,3.7-1.5Z"/>
      <path class="cls-1" d="M254,67.3c-2.2,2.3-3.6,3.2-5.9,1.8-2.4-1.5-1.6-3.6-1.8-5.6,0-.2,1.6-1,1.9-.7,2,1.4,3.8,2.9,5.8,4.6Z"/>
      <path class="cls-1" d="M247.2,87.9c-.9-.5-1.8-1-1.8-1.1.6-1.9,1-4.1,2.2-5.6,1.3-1.6,3.2-1,4.3.7.4.7.7,2.3.3,2.6-1.5,1.3-3.4,2.3-5,3.4Z"/>
      <path class="cls-1" d="M249.3,74.8c-.1,2.1-1.2,3.7-3.2,3.2-1.2-.3-2.8-1.8-3-3.1-.4-1.8.8-3.4,3-3.4,2.1,0,3.1,1.3,3.2,3.2Z"/>
      <path class="cls-1" d="M254.8,71.5v8.5c-2.2-1.4-3.9-2.7-3.2-5,.4-1.4,1.4-2.7,2.1-4.1.3.2.7.4,1,.6Z"/>
      <path class="cls-1" d="M57,76.3c2-.5,4.3-1.8,5.9-1.2,2.9,1.2.9,4,1,6.3-3.3.1-5.1-1.8-6.9-3.9,0-.4,0-.8,0-1.3Z"/>
      <path class="cls-1" d="M55,73.9v-8.4c2.3,1.4,5.1,1.3,5.3,4.3.2,3.2-2.8,3-4.4,4.4-.3-.1-.7-.2-1-.3Z"/>
      <path class="cls-1" d="M62.4,56.8c.3,3.3,2.5,5.6,0,7.6-2.4,1.8-4.1-.6-6.8-1.9,2.3-1.9,4.2-3.6,6.8-5.7Z"/>
      <path class="cls-1" d="M70.2,69.4c-1.7,1.5-2.7,2.4-3.7,3.4-.9-1.1-2.5-2.1-2.5-3.2,0-1.1,1.5-2.2,2.4-3.3,1.1.8,2.1,1.7,3.8,3.1Z"/>
      <path class="cls-1" d="M68.1,64.8c-.9-1.7-1.7-3.5-2.6-5.2l.9-.5c.9,1.7,1.9,3.3,2.8,5-.4.2-.8.5-1.1.7Z"/>
    </g>
  </g>
</svg>