<?xml version="1.0" encoding="UTF-8"?>
<svg id="Camada_1" xmlns="http://www.w3.org/2000/svg" viewBox="0 0 345.9 139.9">
  <defs>
    <style>
      .cls-1 {
        fill: #00983a;
      }
    </style>
  </defs>
  <path class="cls-1" d="M203.1,138.9c-30.4.4-60.7.8-91.1,1-4.4,0-8.9-.8-13.3-.9-15.7-.6-31.4-1.2-47.1-1.6-8.3-.2-16.7-.1-25-.2-.8,0-1.9-.5-2.5-1.1-2.3-2.2-3.8-5-4.4-8.1-1-5-1.7-10-2.3-15-.2-1.2-.4-2-1.5-2.7-6.6-4.4-11.8-9.9-14.3-17.6-2.2-6.7-2.1-13.6.2-20.1,2.1-5.8,6.1-10.6,10.9-14.6,4.8-4,10.1-7,16.3-8.1,6-1,10.1-4.1,13.6-9.2,8-11.9,18.5-21.4,30.9-28.8,9.5-5.6,19.8-8.8,30.8-9.9C128.5-.4,152.8-.4,177.2.8c11.9.6,23.8,1.6,35.5,4.2,3.7.8,6.8,2.2,9.4,5.2,6.9,8.1,13.9,16.1,20.9,24.2.8,1,2,1.7,3.2,2.2,4.2,2,8.6,2.3,13.2,2.3,15.8,0,31.6,1.1,47.3,3.2,10.8,1.4,21.6,3.4,32,6.6.9.3,1.9,1,2.4,1.9,4.3,7.5,5,15.8,4.9,24.2,0,4.3-1.2,8.3-3.8,11.7-2.4,3.1-5,6.1-7.8,8.9-3,3.1-6.1,6-9.4,8.7-2.4,1.9-5.2,3.3-7.9,4.7-.9.5-1.4.9-1.6,1.9-1.4,6.3-3.4,12.4-7.1,17.8-1.4,2-3.1,3.9-4.8,5.6-2.6,2.6-5.7,3.9-9.7,3.9-28.1.2-56.1.6-84.2.9-2.2,0-4.4,0-6.6,0,0,0,0,0,0,0ZM23.9,116.1c0,.2.2.4.3.6.5.7,1.1,1.3,1.6,2,.5-.7,1.3-1.3,1.5-2,1-3.5,1.2-7.1.2-10.7-.2-.7-.4-1.4-.6-2-.4-.5-.8-.9-1.3-1.4-.4.4-1.1.7-1.2,1.2-1.1,3.4-1.9,6.8-.3,10.4.1.3,0,.8,0,1.2,0,.3-.1.6-.2.9ZM36.6,68.9c0,.7,0,1.3,0,1.9,0,3.8,0,7.7,0,11.5.3,8.9,1.5,17.6,4.7,26,.5,1.2,1.1,1.8,2.5,2.1,12.8,2.6,25.8,3.6,38.8,2.8.5,0,1.1-.2,1.6-.3-.2-.9-.4-1.6-.5-2.3-2.8-12-4.8-24.1-4.2-36.5.2-4.1.7-8.1,2.2-11.9,1,.2,1.8.6,2.6.4,2.9-.5,4.6,1,5.9,3.2.5.9,1.1,1.1,2,1,6.1-.4,12.3-.6,18.4-.9.6,0,1.2,0,1.8,0,.1.8.2,1.3.3,1.9,0,.5.2.9.3,1.4.5-3.6-.5-7.2.6-11.1.2,2.1.3,3.9.5,5.6.2,1.5.9,2,2.5,1.9,6.4-.4,12.8-.7,19.2-1,1,0,1.3-.5,1.6-1.3,1.2-3.4,2.7-6.6,1.9-10.4,0-.3,0-.6,0-.8.4-1.2-.1-1.8-1.3-2.2-9.6-3.9-19.6-6.5-29.9-7.1-7.5-.5-15,0-22.4,1.6-.4,0-.7.4-1,.6.4.2.8.5,1.2.6.4.1.8,0,1.2,0,9.4-.1,18.5,1.2,27.5,4,2.3.7,4.6,1.6,6.9,2.5-.6.1-1,0-1.5-.1-13-4-26.2-6.2-39.8-4.8-.7,0-1.4.4-2,.6-2.5,1-5,2.1-7.6,3.1-1,.4-2.1.5-3.2.7,0,.2,0,.3,0,.5,2.4.8,4.8,1.6,7.3,2.3,0,0,0,.1,0,.2h-2.9c.4.5.6.9.7.9-15.6-.3-31.2-.7-46.9-1,1.2-.5,2.4-.9,3.7-.9,12.6.3,25.1.6,37.7.9.2,0,.5,0,.7-.1,0-.2,0-.3,0-.5-2.4-.5-4.8-1.3-7.3-1.6-5.5-.6-11.1-.6-16.6-1.3-14.6-1.9-26.6,2.5-36,14-.8,1-1.4,2.1-2.1,3.3,1.3-.5,2.3-.8,3.4-1.2.2.8.3,1.3.4,2.2,1.6-.9,2.9-1.7,4.5-2.6.7,1.2,1.5,2.4,2.2,3.5.7-1.9,1.3-3.9,2-5.8.2,0,.3,0,.5,0,.2.5.3,1,.5,1.6.5,1.4,1.3,2.5,2.8,2.7,3.1.4,6.1.7,9.2.9,1.8,0,3.6-.3,5.5-.4ZM131.2,45.8v.2c2.8,1.2,5.7,2.3,8.6,3.5.9.3,1.2.8,1,1.8-.2,1.2-.2,2.4-.3,3.5.1,0,.3.1.4.2,1.1-3.3,3.6-3.9,6.7-4,19.8-.2,39.7-.6,59.5-1,.4,0,.9,0,1.5-.1-1-4.2-4-6.6-7.3-8.9,1.5.4,3.1.7,4.2,1.6,2.1,1.9,3.9,4,5.7,6.2.7.8,1.2,1.3,2.3,1.3,11.1,0,22.2,0,33.3,0,.6,0,1.2,0,1.9,0-1.3-3.7-4.1-5.8-6.9-8,1.5.4,3.1.7,4.2,1.6,1.9,1.6,3.5,3.6,5.3,5.4.5.5,1.2,1,1.9,1,21.2.2,42.3,1.3,63.5-.5.4,0,.8-.1,1.2-.2,0-.1,0-.3,0-.4-2.9-1-5.9-2-9-3.1.3,0,.4-.2.5-.1,6.4,1.4,12.8,2.7,18.7,5.6.5.2,1,.5,1.6.5,2.6.1,5.2.3,7.8.3.5,0,1.4-.3,1.5-.7.4-.9-.5-1.2-1.2-1.3-10.8-2.1-21.5-4.6-32.3-6.3-15.3-2.4-30.7-3.1-46.1-3.3-4.3,0-8.4-.3-12.3-2.1-2.1-1-4.3-1.6-6.5-2.2-2.9-.8-5.9-1.9-8.8-2.1-5.6-.3-11.1-.1-16.7-.1-.4,0-.8,0-1.3.1,0,.1,0,.2,0,.3,3.1,1.4,6.2,2.8,9.3,4.2,0,.2,0,.3,0,.5-12.8-4.8-26.1-6.4-39.8-5.7,3,1.7,6,3.4,9.1,5.1,0,.2-.1.3-.2.5-2.7.1-5.5.3-8.2.3-6,0-12,1.1-18-.1-.9-.2-1.9-.6-2.8.4-.2.2-1.4,0-1.8-.5-.8-.8-1.6-1-2.4-.4-1.4,1-2.8.5-4.4.2-1.9-.4-3.9-.4-5.8-.6v.6c2.4.9,5.6.8,6.8,4.1-2,0-3.7,0-5.4,0-2.3.2-4.7.4-7,.8-.4,0-1.1.7-1.1,1.1,0,1.5-.8,1.8-2.1,1.7-2.7-.3-5.5-.7-8.2-1ZM242,55.4c0-.1,0-.2,0-.3-30.6,0-61.3,0-91.9,0-4.3,0-6.5,2.2-6.5,6.4,0,4.3,0,8.7,0,13,0,4.4,2.2,6.6,6.7,6.6,35.7,0,71.4.1,107.1.2,25.5,0,50.9,0,76.4.1,4.1,0,6.4-2.2,6.4-6.4,0-4.6,0-9.1,0-13.7,0-2.5-1-4.5-3.3-5.4-1.2-.5-2.7-.6-4.1-.6-30.2,0-60.5,0-90.7,0ZM90.8,40.1c0-.3-.1-.5,0-.7,1-9.3,2-18.6,3.1-27.9.3-2.7.5-2.7,3.2-3.2,1-.2,2-.3,3-.5,21.1-2.8,42.3-3.4,63.6-2.9,2.4,0,2.7.4,2.9,2.8,0,.3,0,.7,0,1,.2,1.1-.2,1.7-1.4,1.8-3,.2-5.9.5-8.9.6-2.5.1-3.3.9-3,3.5.3,2,.8,2.5,2.8,2.6,5.7.1,11.4.2,17.1.3,1.7,0,3.3-.2,5.1-.3.1-1.1.3-2.1.3-3,.1-3.3,0-3.4-3.2-3.7-2.2-.2-4.3-.4-6.5-.6-.1-1.7-.2-3.2-.4-4.7,1.3,0,2.6,0,3.8,0,4.4.3,8.8.5,13.1.9,9.4.8,18.8,1.9,28,4.4.9.2,1.8.7,2.5,1.3,5.5,5.1,11,10.2,16.4,15.3.8.7,1.6,1.5,2.4,2.3-.2-.6-.5-1.1-.9-1.5-5.1-5.5-10.3-11-15.4-16.6-1.8-2-4-3.2-6.6-3.8-10.5-2.4-21.3-3.3-32-3.9-19.8-1.2-39.6-1.5-59.4,0-8.1.6-16.1,2.1-24.1,3-3,.3-4.1,1.8-4.4,4.6-.7,7.2-1.6,14.4-2.3,21.7-.3,2.9-.4,5.8-.7,8.8.6,0,1.1,0,1.5-.1,19-3.7,38.1-5.2,57.4-5.6,3.4,0,6.4-.6,9.2-2.6,2.6-1.9,5.6-2.2,8.7-2,2,.1,4,.3,6.1.4,7.1.3,14.3.8,21.4,1,7.1.2,14.2.2,21.3.5,7,.3,14.1-1,21.1.3-1.7-1.6-3.6-2.1-6-2.1-8.9.2-17.8.4-26.7.2-12-.3-24.1-1.1-36.1-1.5-3.1-.1-6.5-.7-9.3,1.4-3.2,2.4-6.8,2.7-10.6,3-12.7.8-25.4,1.8-38.1,3-6,.5-11.9,1.6-18,2.5ZM102,21c0,3.9,0,7.7,0,11.4,0,1.2.4,1.7,1.5,2,.9.3,1.8.7,2.5,1.4.9.9,1.8.9,2.9.6,7.4-1.5,14.9-3.1,22.3-4.4,6.5-1.1,12.9,0,19.3.7,2.8.3,4.8-.5,6.8-2,1.9-1.4,2-3.7,0-4.9-1.8-1.1-3.9-2-6-2.4-15.3-2.7-30.8-2.9-46.3-2.6-.9,0-1.8,0-3,.2ZM189.7,134.6h72.6c-3.1-3.9-6.6-7.2-7.9-12-.5,0-1,0-1.4,0-3.5,0-7.1.5-10.6,0-2.1-.3-3.8,0-5.5,1-1.1.6-2.4,1-3.3,1.8-2,1.9-4.2,2.6-6.1.8-2.4-2.3-4.7-2.2-7.7-1.9-7.6.9-15.2,1.4-22.9,2.2-.5,0-1.1.4-1.5.8-2,2.4-3.9,4.8-5.7,7.2ZM69.8,49.1c.6,0,1,0,1.4-.2,4.8-1,9.1-3.1,13.3-5.6,1.2-.7,1.9-1.6,2.2-3,2.2-10.4,2.8-21,3.4-31.5,0-.2-.1-.4-.3-1-5,2-9.9,3.8-14.6,5.8-2,.9-3.9,2.1-5.4,3.6-8.2,8.2-16.2,16.4-24.3,24.7-.9.9-1.7,2-2.3,3.1-.8,1.4-.2,2.4,1.4,2.7.6.1,1.2.1,2,.2-.8.6-1.4,1.1-2.1,1.6,0,.2,0,.5.1.7,4.5.5,9.1.9,13.6,1.4,0-.2,0-.3,0-.5-1.9-.5-3.7-1-5.6-1.6,0-.1,0-.3,0-.4.7,0,1.5-.2,2.2-.1,3.9.1,7.9.3,11.8.4.4,0,.8-.1,1.2-.2,0-.1,0-.3,0-.4-.4,0-.8-.2-1.2-.3-5-.4-10-.7-15-1.2-2.8-.3-3.1-.8-2.3-3.5.2-.6.5-1.1.9-1.6,5.2-6.4,10.4-12.9,15.7-19.3,1.4-1.7,3-3.4,4.5-5.1-2.7,5.2-4.8,10.5-6.1,16.2.6-.6,1-1.2,1.2-2,1.8-5.5,4-10.8,7.3-15.5.4-.6,1-1.3,1.7-1.5,3.3-1.4,6.7-2.7,10-4,1.2-.4,2.4-.7,4-1.1-.1,1.6.2,3.1-.3,4.2-3.8,8.8-6.2,18-8.2,27.3-.3,1.5-.8,2.6-2.4,3-.4.1-.8.6-1.1.9-.8,1.2-3.1,2.2-4.4,1.6-.6-.3-1.1-1.2-1.4-1.9,0-.2.8-.8,1.3-1.1.3-.2.6-.2.9-.4,1.4-.8,2.7-1.8,2.7-3.6,0-1.8-1.4-2.8-3-3.3-2.6-.8-5.3-.9-8-.2-1.6.4-2.9,1.3-3.7,3,1,.1,1.9.2,2.7.3-.9.4-1.8.5-2.7.7-.3,0-.9.4-.9.5,0,.4.2.9.5,1.1.6.5,1.3.9,2.1,1.1,1.9.6,3.8,1.2,5.7,1.6,1.7.4,2.1,1.3,1.8,2.8,0,.4-.2.7-.3,1.3ZM92.2,125.2c-1.6-.4-2.9,0-3.9,1.1-.6.7-1.4,1.3-2.2,1.9-.4.3-1,.4-1.3.3-4.1-1.3-8.1-2.6-12.2-4-.9-.3-1.6-1.2-2.5-1.3-2.4-.2-4.9,0-7.6,0,.3,4.6-1.7,8.4-5.1,11.8,14,.4,27.7.8,41.5,1.2-3.3-2.9-6-6.4-6.7-10.9ZM188.5,100c-5.1,0-9.5-2-11.8-7-.2-.3-.6-.7-1-.7-1.6-.3-3.2-.4-4.8-.6,0,.1,0,.2,0,.3.8.3,1.7.5,2.5.8.5.2,1.1.6,1.3,1.1,2.4,5.5,6.9,7.8,12.5,7.9,34.9.5,69.8,1.3,104.7-.3,4.4-.2,8.1-1.6,11.1-4.6,1.7-1.7,3.6-2.5,5.9-2.8,2.1-.3,4.1-.7,6.1-1.1.9-.2,1.7-.4,2.9-.7-4.5,0-8.7,0-13,0-1.1,0-1.8.3-2.4,1.3-2.4,3.4-5.6,5.6-9.8,5.8M223.6,30.9c-4.2-5.1-8.2-9.9-12.3-14.7-.4-.4-1.4-.7-2.1-.5-3.7,1-7.4,2-11,3.2-2.9,1-3.8,2.6-3.6,5.7.1,1.3.6,2.6,1,3.9.3,1.1,1,1.6,2.2,1.7,5.1.2,10.1.6,15.2.8,3.4.1,6.8,0,10.5,0ZM112.9,90.9c-.6-1.7-1.9-1.7-3.1-1.5-2,.3-3.4,1.5-4.4,3.2-3.4,6.1-3.6,12.4-.2,18.5,2.6,4.7,7.3,4.6,10.1,0,1.6-2.6,2.2-5.5,2.4-8.5.1-1.8-.3-3.3-1.5-4.5-.8.5-1.6,1-2.4,1.4-1.4.8-3,1.4-4.3,2.3-1.4,1-2.2.4-2.9-.7-1.2-1.8-.9-3.8-.6-5.7.8-4.3,2.4-5.3,6.8-4.4ZM120.5,104.8c-.3,1.2-.5,2.4-.8,3.6-.8,3.4-1.6,6.8-3.9,9.6-2.1,2.6-4.8,3-7.6,1.4-3.7-2.2-5.7-5.6-6.7-9.7-.4-1.9-.6-3.9-.9-5.8-.5.6-1.1,1.2-1.5,1.9-.3.4-.7,1-.6,1.5.7,4.1,1.9,8.1,4.2,11.7.3.5.7,1,1,1.6-5.3-3.9-7-9.7-7.7-16.2-.2.5-.2.6-.2.7-.5,6.7,2.3,12.4,5.9,17.7.2.4.7.6,1,.9,4.4,2.9,9.9,1.6,13.3-3.1,3.3-4.7,4.3-10.1,4.5-15.8ZM118.5,99.2c-.2-.6-.4-1.1-.6-1.7-2.4-6.5-4.8-13-7.2-19.5-.5-1.4-1.3-2.9-2.2-4.1-3.1-3.6-7.1-5.4-11.8-5.2-6.4.2-7.4,1.1-8.9,7-1.5,5.9-1,12-.5,18,.2,2.5.6,5.1.9,7.6.3-.7.4-1.4.3-2-.1-2.4-.4-4.7-.5-7.1-.2-6.2.1-12.4,2.5-18.3.2-.6.7-1.3,1.2-1.5,5.5-2,12.8-2.1,16.9,5.2,1.6,2.9,2.7,6,3.8,9.2,1.5,4.4,3.3,8.6,6.2,12.4ZM165.2,35c-1.2,1.6-.1,2.2.9,2.7.5.3,1.2.5,1.8.5,6.3.9,12.5.1,19.2-.5-2.3-2.2-4.2-4.4-7.1-4.6-5.8-.4-11.7-.5-17.5-.6-.9,0-1.8.4-2.7.6,0,.1,0,.3,0,.4,1.7.4,3.3.8,5.3,1.4ZM158.1,133.8c-.2-.3-.3-.5-.5-.6-1.7-1.8-3.4-3.5-3.3-6.2,0-.3-.4-.6-.7-.8-2.2-.9-4.4-1.7-6.7-2.6-1.1,4.5-3.3,8.4-7,11.8,6.3-.5,12.1-1.1,18.2-1.6ZM32.1,108.1c1.2,2.9,2.9,5.1,6.2,6.1,7.6,2.3,15.2,4.5,23.1,5.8,8.9,1.4,17.8,2.1,26.7,1.6.5,0,1-.2,2-.4-.7-.3-.8-.4-1-.4-.4,0-.9,0-1.3,0-7.3.3-14.6,0-21.9-1-2.8-.4-5.6-.9-8.3-1.6-2.5-.6-5.3-.4-7.2-2.7-6.3-1.8-12.6-3.9-18.3-7.3ZM148.8,41.4c-3.6-1.8-24.4-4.3-25.3-3,.3.2.6.4,1.3.9-3.1.5-5.7.9-8.3,1.3,0,0,0,.1,0,.2,10.8.2,21.5.4,32.3.7ZM14.9,94.8c0-1.3-.1-2.7,0-4,.2-1.9.5-3.8,1-5.6.9-2.7,3.7-3.6,6.1-1.9,1.1.8,2.1,1.9,2.7,3.1.9,1.9,1.5,4,2.1,6,1.1,3.9,2.1,7.8,3.2,11.7-.7-5-1.4-9.9-2.3-14.8-.5-2.8-1.8-5.4-4.2-7.1-3.8-2.6-7.9-1-8.8,3.4-.6,3.1-.4,6.1.3,9.1ZM117.7,93c.1,0,.3,0,.4,0,1.1-.3,2.2-.5,3.3-.8,2.4-.6,2.6-.9,2.1-3.4-.1-.6-.6-1.6-1-1.6-2.2-.2-4.4,0-6.7,0,.8,2.2,1.4,4,2,5.9ZM22.9,121.1c0,0-.1,0-.2.1-.4-1.2-.8-2.4-1.2-3.6.3,2.3.8,4.6,1.6,6.7.7,1.8,2.5,2,3.5.3,1-1.7,1.5-3.7,2.2-5.5-.2,0-.3-.1-.5-.2-.1.4-.3.8-.4,1.2-.1.4-.3.9-.5,1.3-.7,1.4-1.7,1.6-2.5.2-.8-1.5-1.4-3.2-1.9-4.8-.4-1.2-.4-2.5-.6-4.1-.3.5-.6.7-.6.8.3,2.5.7,5.1,1,7.6ZM155.1,96.4c3.3-2,5.8-2.4,7.4-.6,2.8,3,1,5.8-.8,8.5,2.3-1.9,3.6-4.2,3-7.2-.3-1.7-1.5-2.9-3.3-3.3-2.6-.5-4.7.6-6.3,2.6ZM312.6,96c2.4-1.3,5-2.4,7.1,0,2.7,3.1.7,5.9-1.7,8.9,3.8-3,4.9-7.2,2.8-9.7-1.9-2.3-5.5-2-8.2.7ZM157.4,101.9c1.8-.2,2.6-1,2.4-2.1-.1-.6-1-1.5-1.6-1.6-1.2-.2-2,.8-1.9,2,0,.7.8,1.3,1.1,1.8ZM317.7,99.8c-1.1-.9-1.7-1.6-2.4-1.7-1.2-.2-2,.7-2,1.9,0,1.1.7,2,1.7,1.7.8-.2,1.5-1,2.7-1.9Z"/>
  <path class="cls-1" d="M213.4,50c-1.1,0-1.6-.4-2.3-1.3-1.8-2.2-3.6-4.3-5.7-6.2-1-.9-2.7-1.2-4.2-1.6,3.2,2.3,6.2,4.7,7.3,8.9-.6,0-1,.1-1.5.1-19.8.4-39.7.7-59.5,1-3.1,0-5.6.6-6.7,4-.1,0-.3-.1-.4-.2,0-1.2,0-2.4.3-3.5.2-1-.1-1.4-1-1.8-2.9-1.1-5.7-2.3-8.6-3.5v-.2c2.8.3,5.5.7,8.2,1,1.3.2,2-.2,2.1-1.7,0-.4.7-1.1,1.1-1.1,2.3-.4,4.7-.6,7-.8,1.7-.1,3.5,0,5.4,0-1.2-3.3-4.4-3.2-6.9-4.1v-.6c2,.2,4,.2,5.9.6,1.5.3,2.9.8,4.4-.2.8-.6,1.6-.4,2.4.4.4.4,1.6.7,1.8.5.9-1.1,1.8-.6,2.8-.4,6,1.2,12,.2,18,.1,2.7,0,5.5-.2,8.2-.3,0-.2.1-.3.2-.5-3-1.7-6-3.4-9.1-5.1,13.6-.7,26.9.9,39.8,5.7,0-.2,0-.3,0-.5-3.1-1.4-6.2-2.8-9.3-4.2,0-.1,0-.2,0-.3.4,0,.8-.1,1.3-.1,5.6,0,11.2-.2,16.7.1,3,.2,5.9,1.3,8.8,2.1,2.2.6,4.5,1.3,6.5,2.2,4,1.8,8.1,2,12.3,2.1,15.4.1,30.9.9,46.1,3.3,10.8,1.7,21.5,4.2,32.3,6.3.8.2,1.6.4,1.2,1.3-.1.4-1,.7-1.5.7-2.6,0-5.2-.1-7.8-.3-.5,0-1.1-.2-1.6-.5-5.9-3-12.3-4.3-18.7-5.6,0,0-.2,0-.5.1,3.1,1.1,6,2.1,9,3.1,0,.1,0,.3,0,.4-.4,0-.8.1-1.2.2-21.1,1.8-42.3.7-63.5.5-.6,0-1.4-.5-1.9-1-1.8-1.8-3.4-3.8-5.3-5.4-1.1-.9-2.7-1.2-4.2-1.6,2.8,2.2,5.7,4.2,6.9,8-.7,0-1.3,0-1.9,0"/>
  <path class="cls-1" d="M179.9,3.5c10.7.7,21.5,1.5,32,3.9,2.6.6,4.7,1.8,6.6,3.8,5.1,5.6,10.2,11.1,15.4,16.6.4.4.7.9.9,1.5-.8-.8-1.6-1.5-2.4-2.3-5.5-5.1-10.9-10.2-16.4-15.3-.7-.6-1.6-1-2.5-1.3-9.2-2.5-18.6-3.6-28-4.4-4.4-.4-8.8-.6-13.1-.9-1.2,0-2.5,0-3.8,0,.1,1.5.2,3,.4,4.7,2.2.2,4.3.4,6.5.6,3.2.3,3.3.4,3.2,3.7,0,1-.2,1.9-.3,3-1.7,0-3.4.3-5.1.3-5.7,0-11.4-.2-17.1-.3-2,0-2.5-.6-2.8-2.6-.3-2.5.4-3.4,3-3.5,3-.1,5.9-.4,8.9-.6,1.1,0,1.6-.7,1.4-1.8,0-.3,0-.7,0-1-.2-2.5-.5-2.8-2.9-2.8-21.3-.5-42.5,0-63.6,2.9-1,.1-2,.3-3,.5-2.7.5-2.8.5-3.2,3.2-1.1,9.3-2.1,18.6-3.1,27.9,0,.2,0,.4,0,.7,6.1-.9,12.1-2,18-2.5,12.7-1.2,25.4-2.2,38.1-3,3.8-.2,7.4-.6,10.6-3,2.8-2.1,6.2-1.5,9.3-1.4,12,.4,24.1,1.2,36.1,1.5,8.9.2,17.8,0,26.7-.2,2.4,0,4.4.5,6,2.1-7-1.4-14,0-21.1-.3-7.1-.3-14.2-.2-21.3-.5-7.1-.2-14.3-.7-21.4-1-2,0-4-.2-6.1-.4-3.1-.2-6.1,0-8.7,2-2.8,2-5.8,2.5-9.2,2.6-19.3.4-38.5,1.9-57.4,5.6-.4,0-.9,0-1.5.1.2-3,.4-5.9.7-8.8.7-7.2,1.6-14.4,2.3-21.7.3-2.8,1.4-4.3,4.4-4.6"/>
  <path class="cls-1" d="M69.7,17.1c1.5-1.5,3.5-2.7,5.4-3.6,4.8-2.1,9.7-3.9,14.6-5.8.2.6.4.8.3,1-.7,10.6-1.3,21.1-3.4,31.5-.3,1.4-.9,2.2-2.2,3-4.2,2.5-8.5,4.6-13.3,5.6-.4,0-.8,0-1.4.2.1-.6.2-1,.3-1.3.3-1.5-.2-2.5-1.8-2.8-1.9-.4-3.8-1-5.7-1.6-.7-.2-1.4-.6-2.1-1.1-.3-.2-.5-.7-.5-1.1,0-.2.6-.5.9-.5.9-.2,1.8-.3,2.7-.7-.8,0-1.7-.2-2.7-.3.8-1.7,2.2-2.6,3.7-3,2.7-.8,5.4-.6,8,.2,1.6.5,2.9,1.5,3,3.3,0,1.7-1.2,2.8-2.7,3.6-.3.2-.7.2-.9.4-.5.3-1.3.9-1.3,1.1.3.7.8,1.6,1.4,1.9,1.3.7,3.6-.3,4.4-1.6.3-.4.7-.8,1.1-.9,1.6-.4,2.1-1.4,2.4-3,2-9.3,4.4-18.5,8.2-27.3.5-1.1.2-2.6.3-4.2-1.5.4-2.8.7-4,1.1-3.4,1.3-6.7,2.6-10,4-.7.3-1.3.9-1.7,1.5-3.4,4.7-5.6,10-7.3,15.5-.2.7-.7,1.4-1.2,2,1.3-5.7,3.4-11,6.1-16.2-1.5,1.7-3,3.3-4.5,5.1-5.2,6.4-10.5,12.8-15.7,19.3-.4.5-.7,1-.9,1.6-.8,2.7-.5,3.3,2.3,3.5,5,.5,10,.8,15,1.2.4,0,.8.2,1.2.3,0,.1,0,.3,0,.4-.4,0-.8.2-1.2.2-3.9-.1-7.9-.3-11.8-.4-.7,0-1.5,0-2.2.1,0,.1,0,.3,0,.4,1.9.5,3.7,1,5.6,1.6,0,.2,0,.3,0,.5-4.5-.5-9.1-.9-13.6-1.4,0-.2,0-.5-.1-.7.6-.5,1.3-.9,2.1-1.6-.8,0-1.4-.1-2-.2-1.6-.3-2.2-1.2-1.4-2.7M88.8,19.1c-.2,0-.4,0-.7,0-2.2,7.7-4.5,15.4-6.7,23.1,3.3.1,4.7-.9,5.1-3.7.5-3.5,1-7,1.5-10.5.4-2.9.6-5.9.9-8.9Z"/>
  <path class="cls-1" d="M104.6,103.4c-.6,2.3-.4,4.4.8,6.4,1.5,2.6,3.9,3.7,6.5,2.9,2.1-.6,3.3-2.8,3.3-5.8-.2.3-.3.5-.3.7-1.2,2.7-3.2,4.2-5.5,4-1.8-.2-3.6-2.2-4.2-4.8-.3-1.1-.4-2.3-.6-3.4Z"/>
  <path class="cls-1" d="M118.5,99.2c-2.9-3.8-4.7-8-6.2-12.4-1.1-3.1-2.2-6.3-3.8-9.2-4-7.3-11.4-7.2-16.9-5.2-.5.2-1,.9-1.2,1.5-2.4,5.9-2.7,12-2.5,18.3,0,2.4.3,4.7.5,7.1,0,.7,0,1.3-.3,2-.3-2.5-.6-5.1-.9-7.6-.5-6-1-12.1.5-18,1.5-5.9,2.5-6.8,8.9-7,4.7-.1,8.7,1.7,11.8,5.2,1,1.1,1.7,2.6,2.2,4.1,2.5,6.5,4.8,13,7.2,19.5.2.6.4,1.1.6,1.7Z"/>
  <path class="cls-1" d="M165.2,35c-2-.5-3.7-.9-5.3-1.4,0-.1,0-.3,0-.4.9-.2,1.8-.7,2.7-.6,5.9.1,11.7.2,17.5.6,2.8.2,4.8,2.4,7.1,4.6-6.7.6-12.9,1.4-19.2.5-.6,0-1.2-.3-1.8-.5-1.1-.5-2.1-1.1-.9-2.7Z"/>
  <path class="cls-1" d="M148.8,41.4c-10.8-.2-21.6-.4-32.3-.7,0,0,0-.1,0-.2,2.6-.4,5.3-.8,8.3-1.3-.7-.5-1-.7-1.3-.9.9-1.3,21.7,1.1,25.3,3Z"/>
  <path class="cls-1" d="M27.5,105.9c1,3.6.9,7.2-.2,10.7-.2.8-1,1.3-1.5,2-.5-.7-1.1-1.3-1.6-2-.1-.2-.2-.4-.3-.6.2.2.4.4.6.6.5.3,1.3,1,1.5.8.5-.3.8-1.1,1.2-1.6-1.6,1.3-1.8,1.3-2.8-.4,0,0-.2-.1-.4-.2,0-.4.1-.8,0-1.2-1.5-3.5-.7-7,.3-10.4.2-.5.8-.8,1.2-1.2.4.5.8.9,1.3,1.4-.6,0-1.5-.5-1.8-.2-1.2,1-1.1,5.7.1,7.1,1.5-1.2,2.9-2.5,2.3-4.8Z"/>
  <path class="cls-1" d="M117.7,93c-.6-1.9-1.2-3.7-2-5.9,2.3,0,4.5,0,6.7,0,.4,0,.8,1,1,1.6.5,2.5.3,2.8-2.1,3.4-1.1.3-2.2.5-3.3.8-.1,0-.2,0-.4,0Z"/>
  <path class="cls-1" d="M27.5,105.9c.6,2.3-.8,3.5-2.3,4.8-1.2-1.3-1.3-6-.1-7.1.3-.3,1.2.1,1.8.2.2.7.4,1.4.6,2Z"/>
  <path class="cls-1" d="M155.1,96.4c1.6-2,3.7-3.1,6.3-2.6,1.8.3,2.9,1.5,3.3,3.3.6,3-.7,5.3-3,7.2,1.8-2.7,3.5-5.5.8-8.5-1.6-1.8-4.1-1.4-7.4.6Z"/>
  <path class="cls-1" d="M312.6,96c2.6-2.7,6.3-3,8.2-.7,2.1,2.5,1.1,6.7-2.8,9.7,2.4-3,4.3-5.8,1.7-8.9-2.1-2.4-4.7-1.3-7.1,0Z"/>
  <path class="cls-1" d="M157.4,101.9c-.3-.5-1-1.1-1.1-1.8-.2-1.2.6-2.2,1.9-2,.6,0,1.5,1,1.6,1.6.2,1.2-.6,2-2.4,2.1Z"/>
  <path class="cls-1" d="M317.7,99.8c-1.2.9-1.9,1.8-2.7,1.9-1.1.2-1.8-.6-1.7-1.7,0-1.2.8-2.1,2-1.9.7.1,1.3.9,2.4,1.7Z"/>
  <path class="cls-1" d="M24.1,115.3c.1,0,.3,0,.4.2,1.1,1.7,1.2,1.8,2.8.4-.4.6-.7,1.3-1.2,1.6-.3.2-1-.5-1.5-.8-.2-.1-.4-.4-.6-.6,0-.3.1-.6.2-.9Z"/>
  <path class="cls-1" d="M82.7,112.2c-2.9,0-5.5,0-8.2,0-10,0-19.9-1-29.7-2.9-1.3-.3-2-.8-2.5-2.1-3.2-8.8-4.3-18-4.4-27.4,0-3.3,0-6.6.3-10,.3.4.7.9,1.2,1.6.1-1.6.2-2.9.3-4.7.5.9.8,1.4,1.1,1.9,1,1.6,2.4,2.5,4.3,2.5,1.6,0,3.3,0,4.7.5,6,2.2,12,1,18,.7,2-.1,4-.5,6-.8,1-.1,1.3-.7,1.5-1.7.3-2.1.5-4.1,1.2-6.1.7-2.2,2.1-2.9,4.3-2.8-3,7.8-3,15.8-2.5,23.9.5,8.4,1.9,16.8,3.8,25,.2.6.3,1.3.5,2.5Z"/>
  <path class="cls-1" d="M184.3,68.7c-1-5.9-3.5-8.7-7.6-8.8-4.3-.1-7.3,2.9-8.6,8.7h-3.9c-.2-2.9-.9-5.6-3.4-7.3-1.3-.8-2.9-1.4-4.4-1.4-4.2-.2-6.7,2.4-8.4,8.7h-2.8c0-2.7-.2-5.4,0-8,.3-2.6,2.4-4.1,5.4-4.1,8.5,0,17,0,25.5,0,38.9,0,77.7.2,116.6.2,13.5,0,26.9,0,40.4,0,3.9,0,5.9,2,5.9,6,0,1.9,0,3.8,0,5.8-.6,0-1.1,0-1.6.1-1.2.2-1.6-.2-1.8-1.5-.5-3.3-2.3-5.7-5.5-6.9-4.3-1.6-8.9,1-10,5.6-.2.9-.3,1.8-.4,2.7h-3.9c-.2-.9-.4-1.8-.6-2.7-1.2-3.8-4.8-6.4-8.4-6.1-3.8.4-6.6,3.3-7,7.5-.1,1.4-.8,1.3-1.8,1.3-19.9,0-39.8,0-59.6,0-17.3,0-34.7,0-52,0-.6,0-1.2,0-1.9,0ZM183.2,58.8c0,.3,0,.6,0,1,.9.1,1.7.4,2.6.4,35.6,0,71.3,0,106.9,0,1,0,1.9,0,2.9,0,.6,0,1.1-.4,1.6-.6,0-.2,0-.5,0-.7-.8-.1-1.6-.4-2.4-.4-19.8,0-39.5,0-59.3,0-16.6,0-33.1,0-49.7,0-.8,0-1.7.2-2.5.4Z"/>
  <path class="cls-1" d="M145.1,71.6c1.9-.4,3.3-.3,4.4,1.8,2.8,4.9,9.6,4.8,12.8,0,1-1.5,1.9-2,3.6-1.9,1.7,0,2.7.3,3.7,2,2.8,5.1,10,4.9,13.1-.3.8-1.3,1.6-1.7,3.1-1.7,37.5,0,75,0,112.5,0,1.3,0,2.1.4,2.7,1.6,1.5,2.7,4,4.2,7.1,4,3.1-.1,5.2-1.8,6.6-4.5.2-.5.9-.8,1.5-1,.5-.2,1.1,0,1.7,0,1.6-.2,2.6.3,3.5,1.8,3.4,5.2,10.2,4.9,13.3-.5.6-1.1,2.6-1.7,3.7-1.2.2.1.4.4.5.6.4,3.8-.4,7.7-5.7,7.7-54.4-.1-108.8-.2-163.2-.3-6,0-12.1-.3-18.1,0-6,.2-7.5-3.5-6.7-8.1ZM298.6,77.2c0-.3,0-.6,0-.9-.8-.1-1.6-.3-2.5-.3-36.3,0-72.7,0-109,0-.8,0-2.2.7-2.2.8.3,1.3,1.4.9,2.3.9,27.8,0,55.6,0,83.3,0,8.6,0,17.2,0,25.9,0,.7,0,1.5-.3,2.2-.5Z"/>
  <path class="cls-1" d="M301.1,70.1q4.4,1.6,5.1,0c2,.7,3.6,0,4.7-1.7,1.1-1.6,1-3.2-.5-4.6,0-.1.2-.2.3-.3.6.2,1.4.3,1.8.8,1.7,2.1,2.1,4.6,1.3,7.1-.8,2.4-2.5,4-5,4.4-3.5.6-6.8-1.8-7.6-5.7Z"/>
  <path class="cls-1" d="M321.4,70.1c1.7,0,3.4,2.8,5.1,0,2,.5,3.5,0,4.6-1.6,1.1-1.6,1.1-2.6-.5-5.1,1,.4,1.7.5,2.1.9,1.8,1.8,2.1,5.6.8,8.1-1.2,2.4-3.7,3.8-6.4,3.5-2.9-.3-5.5-2.8-5.7-5.7Z"/>
  <path class="cls-1" d="M153.1,63.6c-1.7,1.5-1.7,3.1-.5,4.7,1.2,1.6,2.6,2.1,4.6,1.6,1.7,2.9,3.4,0,5.1,0-.2,3.2-3.5,5.9-6.9,5.7-3.4-.2-6.2-3.4-6-7.1,0-3.1,1.5-5.1,3.8-5.1Z"/>
  <path class="cls-1" d="M182.4,70c-.4,3.5-3.6,6.1-7.2,5.8-3.4-.3-5.9-3.5-5.8-7.3.1-2.9,1.5-4.8,3.7-4.9-1.8,1.7-1.7,3.3-.3,5,1.2,1.4,2.6,2.1,4.4,1.4q.8,1.8,5.1,0Z"/>
  <path class="cls-1" d="M88.8,19.1c-.3,3-.5,5.9-.9,8.9-.4,3.5-.9,7-1.5,10.5-.4,2.7-1.8,3.8-5.1,3.7,2.3-7.8,4.5-15.4,6.7-23.1.2,0,.4,0,.7,0Z"/>
  <path class="cls-1" d="M104.6,103.4c.2,1.1.3,2.3.6,3.4.6,2.6,2.5,4.6,4.2,4.8,2.2.2,4.3-1.3,5.5-4,0-.2.2-.4.3-.7,0,3-1.3,5.2-3.3,5.8-2.6.8-5-.3-6.5-2.9-1.1-2-1.3-4.1-.8-6.4Z"/>
  <path class="cls-1" d="M298.6,77.2c-.7.2-1.5.5-2.2.5-8.6,0-17.2,0-25.9,0-27.8,0-55.6,0-83.3,0-.9,0-2,.4-2.3-.9,0-.1,1.4-.8,2.2-.8,36.3,0,72.7,0,109,0,.8,0,1.6.2,2.5.3,0,.3,0,.6,0,.9Z"/>
</svg>