<?xml version="1.0" encoding="UTF-8"?>
<svg id="Camada_1" xmlns="http://www.w3.org/2000/svg" viewBox="0 0 232.4 298.4">
  <defs>
    <style>
      .cls-1 {
        fill: #fff;
      }

      .cls-2 {
        fill: #009640;
      }

      .cls-3 {
        fill: #3aaa35;
      }
    </style>
  </defs>
  <path class="cls-3" d="M107.8,291c-11-13.5-21.5-26.4-32-39.2-17.7-21.7-35.7-43.1-52.9-65.2C4.9,163.4-2.1,136.7.6,107.6c3-31.9,16.4-58.7,40.4-79.9C57.7,12.9,77.3,4.2,99.4,1.2c26.9-3.6,52.5.4,76,14.5,30.7,18.4,49.6,45.5,55.3,80.9,6,36.6-3.5,69.5-27.1,98.1-25.9,31.5-52.1,62.7-78.2,94.1-.4.5-.8,1.1-1.6,2.1h3.6c23.2,0,46.5,0,69.7,0,.6,0,1.2,0,1.9,0,3.2,0,4.7,1.3,4.7,3.8,0,2.5-1.5,3.6-4.8,3.6-54.9,0-109.7,0-164.6,0-3.3,0-5-1.3-4.9-3.8,0-2.4,1.7-3.6,5.1-3.6,23.1,0,46.3,0,69.4,0,1,0,2,0,3.7,0ZM115.7,288.7c7.5-9,14.8-17.7,22-26.4,19.7-23.8,39.5-47.5,59.2-71.3,22.7-27.4,32-58.7,26.2-94C214.5,44.2,165.4.2,101.5,8.5c-30.6,4-54.9,18.9-72.8,43.9-17.7,24.8-24.2,52.6-19.9,82.8,2.9,20.2,12.1,37.6,25,53.2,17.8,21.6,35.4,43.3,53.1,65,9.5,11.7,19.1,23.4,28.9,35.3Z"/>
  <path class="cls-1" d="M115.7,288.7c-9.8-12-19.3-23.7-28.9-35.3-17.7-21.7-35.3-43.4-53.1-65-12.9-15.6-22.1-33-25-53.2-4.3-30.2,2.2-57.9,19.9-82.8C46.5,27.4,70.9,12.5,101.5,8.5,165.4.2,214.5,44.2,223.2,97.1c5.8,35.3-3.5,66.6-26.2,94-19.7,23.8-39.5,47.5-59.2,71.3-7.3,8.7-14.6,17.5-22,26.4ZM215.2,113.2c-.3-22.7-9.1-45.4-27.4-63.7-25.3-25.4-56.1-34.6-91.4-28C47.5,30.7,13.4,76.7,18.6,126.2c2.9,27.3,15.4,49.5,37,66.2,23.9,18.5,51.1,24.6,80.9,18.9,45.4-8.7,78.7-49,78.7-98.1Z"/>
  <path class="cls-3" d="M215.2,113.2c0,49.1-33.3,89.4-78.7,98.1-29.7,5.7-56.9-.4-80.9-18.9-21.6-16.7-34.2-38.9-37-66.2C13.4,76.7,47.5,30.7,96.5,21.5c35.2-6.6,66,2.6,91.4,28,18.2,18.3,27,41,27.4,63.7ZM207.7,116.5c0-21.6-8.5-43.7-23.2-59.6-25.9-28-65-37.9-100.5-23.9-34.5,13.6-54.6,39.4-58.2,76.6-2.5,26.8,6.5,50.3,25.6,69.2,23.5,23.2,51.9,31.4,84.3,25,41.2-8.1,71.8-45.4,71.9-87.3Z"/>
  <path class="cls-2" d="M207.7,116.5c-.1,41.9-30.7,79.2-71.9,87.3-32.4,6.4-60.9-1.9-84.3-25-19.1-18.9-28.2-42.4-25.6-69.2,3.5-37.1,23.6-63,58.2-76.6,35.5-14,74.7-4.1,100.5,23.9,14.7,15.9,23.2,37.9,23.2,59.6ZM115.5,140.3c9.4,0,18.7,0,28.1,0,1.7,0,2.6.4,3.5,2,7.4,13.6,26.9,14.1,34.9.9,1.3-2.2,2.6-3,5.1-2.9,5,.2,7.6-2.7,7.7-7.7,0-3.9-.2-7.8,0-11.7.7-11.1-8-21.1-20.4-20.7-6.6.2-13.3.1-19.9,0-1.3,0-2.8-.6-3.7-1.4-5.7-4.8-11.2-9.7-16.8-14.5-3.4-2.9-7.4-4.5-11.9-4.5-16.6,0-33.2,0-49.8,0-3.7,0-7.1,1.2-10.2,3.3-4.3,2.8-6,7.2-7.5,11.8-1.7,5-1.7,4.9-6.9,5.1-6.5.3-11.1,4.9-11.1,11.4,0,6.4,0,12.9,0,19.3,0,5.6,3.6,9.3,9.1,9.5,1.4,0,2.1.5,2.8,1.7,3.8,7,9.9,10.8,17.9,10.8,8,0,14.1-3.6,17.9-10.7.8-1.4,1.5-1.8,3.1-1.8,9.4,0,18.7,0,28.1,0ZM113.3,39.4c-5,0-13.3.9-21.1,3.9-6.5,2.5-12.6,5.7-18.8,8.9-2.5,1.2-2.9,3.6-1.6,5.6,1.2,1.8,3.4,2.1,5.6.8.3-.2.6-.4.9-.6,18.1-11.1,37.4-13.8,57.9-8.3,6.9,1.9,13.3,5,19.5,8.7,1.2.7,3.5.7,4.8,0,.9-.4,1.4-2.6,1.2-3.8-.2-1.1-1.5-2.1-2.5-2.8-13-8.3-27.2-12.3-45.9-12.4ZM116.5,58.9c-3,.3-6,.4-8.9.8-6.4.9-12.5,2.8-18.3,5.8-2.3,1.2-3.1,3.5-2.1,5.5,1,1.9,3.1,2.3,5.5,1.2.4-.2.8-.4,1.2-.6,10.5-5,21.6-6.5,33-4,4.8,1,9.3,3.1,13.9,4.8,2.3.8,4.2.4,5.2-1.6,1.1-2.1.3-3.7-1.5-5-.6-.4-1.2-.7-1.9-1-8.2-4-16.9-5.9-26.1-6Z"/>
  <path class="cls-1" d="M115.5,140.3c-9.4,0-18.7,0-28.1,0-1.5,0-2.3.4-3.1,1.8-3.9,7-10,10.7-17.9,10.7-8,0-14-3.7-17.9-10.8-.7-1.3-1.4-1.7-2.8-1.7-5.6-.2-9.1-3.9-9.1-9.5,0-6.4,0-12.9,0-19.3,0-6.5,4.6-11.2,11.1-11.4,5.2-.2,5.3-.2,6.9-5.1,1.5-4.6,3.3-8.9,7.5-11.8,3.1-2.1,6.4-3.3,10.2-3.3,16.6,0,33.2,0,49.8,0,4.5,0,8.5,1.5,11.9,4.5,5.6,4.8,11.2,9.8,16.8,14.5,1,.8,2.5,1.4,3.7,1.4,6.6.1,13.3.2,19.9,0,12.4-.4,21.1,9.6,20.4,20.7-.3,3.9,0,7.8,0,11.7,0,5-2.7,7.9-7.7,7.7-2.5,0-3.8.8-5.1,2.9-8,13.3-27.5,12.8-34.9-.9-.9-1.6-1.8-2-3.5-2-9.4,0-18.7,0-28.1,0ZM111.8,107.9c-1,0-1.8-.1-2.5-.1-18.3-.1-36.5-.2-54.8-.3-2.1,0-4.2,0-6.4,0-2.3,0-3.9,1.2-4,3.7,0,6.4,0,12.9,0,19.3,0,.8.8,1.6,1.3,2.4,3-13.1,9.9-20.1,20.1-20.3,11.6-.2,18.3,6,21.4,20h24.8v-24.8ZM119.6,132.6h24.9c0-.7.2-1.2.2-1.7,1.1-12.2,13-20.7,24.9-17.8,8.3,2,14.4,9,15.6,17.7,0,.7.8,1.4,1.2,2.1.3-.1.7-.3,1-.4,0-4,0-7.9,0-11.9,0-8.3-4.7-12.9-13-12.9-17.3,0-34.6,0-51.9,0-.9,0-1.9.1-2.8.2v24.7ZM96,100v-12.4c-.4-.1-.6-.3-.9-.3-7.8,0-15.5-.2-23.3.1-2.1,0-4.8,1.1-6.1,2.6-2.2,2.7-3.6,6.2-5.6,10h35.9ZM103.7,87.3c0,3.6.1,6.9,0,10.1-.1,2.2.6,2.9,2.8,2.9,10.4-.1,20.8,0,31.3,0,.7,0,1.5-.1,3-.3-4.7-4-8.9-7.7-13.2-11.1-1.1-.9-2.7-1.5-4.2-1.5-6.4-.2-12.9,0-19.7,0ZM79.2,132.8c0-6.8-5.7-12.7-12.6-12.7-6.9,0-12.8,5.7-12.8,12.5,0,6.9,5.6,12.6,12.6,12.7,6.9,0,12.7-5.6,12.8-12.4ZM152.3,132.7c0,7,5.7,12.6,12.6,12.5,6.8,0,12.6-5.7,12.7-12.4,0-6.9-5.9-12.8-12.9-12.7-6.8,0-12.4,5.7-12.4,12.6Z"/>
  <path class="cls-1" d="M113.3,39.4c18.7,0,32.9,4.1,45.9,12.4,1.1.7,2.3,1.8,2.5,2.8.2,1.2-.3,3.4-1.2,3.8-1.3.6-3.5.7-4.8,0-6.2-3.7-12.5-6.8-19.5-8.7-20.5-5.5-39.8-2.8-57.9,8.3-.3.2-.6.4-.9.6-2.2,1.3-4.5,1-5.6-.8-1.3-2-.8-4.3,1.6-5.6,6.2-3.1,12.3-6.4,18.8-8.9,7.8-3,16-4,21.1-3.9Z"/>
  <path class="cls-1" d="M116.5,58.9c9.1.1,17.8,2,26.1,6,.6.3,1.3.6,1.9,1,1.8,1.2,2.6,2.9,1.5,5-1,1.9-2.9,2.4-5.2,1.6-4.6-1.7-9.2-3.7-13.9-4.8-11.4-2.5-22.4-1-33,4-.4.2-.8.4-1.2.6-2.4,1.1-4.5.6-5.5-1.2-1.1-2-.3-4.3,2.1-5.5,5.7-3,11.9-4.9,18.3-5.8,3-.4,6-.5,8.9-.8Z"/>
  <path class="cls-2" d="M111.8,107.9v24.8h-24.8c-3.1-14-9.8-20.2-21.4-20-10.2.2-17.1,7.2-20.1,20.3-.4-.8-1.2-1.6-1.3-2.4-.1-6.4-.1-12.9,0-19.3,0-2.5,1.6-3.6,4-3.7,2.1,0,4.2,0,6.4,0,18.3,0,36.5.2,54.8.3.8,0,1.6,0,2.5.1Z"/>
  <path class="cls-2" d="M119.6,132.6v-24.7c1,0,1.9-.2,2.8-.2,17.3,0,34.6,0,51.9,0,8.3,0,12.9,4.7,13,12.9,0,4,0,7.9,0,11.9-.3.1-.7.3-1,.4-.4-.7-1.1-1.4-1.2-2.1-1.2-8.7-7.2-15.7-15.6-17.7-11.9-2.9-23.8,5.6-24.9,17.8,0,.5-.1,1-.2,1.7h-24.9Z"/>
  <path class="cls-2" d="M96,100h-35.9c2-3.7,3.4-7.2,5.6-10,1.3-1.5,4-2.5,6.1-2.6,7.7-.3,15.5-.1,23.3-.1.2,0,.5.1.9.3v12.4Z"/>
  <path class="cls-2" d="M103.7,87.3c6.8,0,13.2,0,19.7,0,1.4,0,3.1.6,4.2,1.5,4.3,3.4,8.5,7.1,13.2,11.1-1.5.1-2.2.3-3,.3-10.4,0-20.8,0-31.3,0-2.2,0-2.9-.7-2.8-2.9.2-3.2,0-6.5,0-10.1Z"/>
  <path class="cls-2" d="M79.2,132.8c0,6.9-5.8,12.5-12.8,12.4-7,0-12.6-5.8-12.6-12.7,0-6.8,5.9-12.5,12.8-12.5,6.8,0,12.6,5.9,12.6,12.7ZM72.9,132.8c0-3.7-2.5-6.4-6.2-6.4-3.5,0-6.5,2.7-6.6,6.2,0,3.4,2.8,6.4,6.3,6.5,3.5,0,6.4-2.7,6.5-6.2Z"/>
  <path class="cls-2" d="M152.3,132.7c0-6.9,5.5-12.5,12.4-12.6,7,0,13,5.8,12.9,12.7,0,6.7-5.8,12.3-12.7,12.4-7,0-12.6-5.5-12.6-12.5ZM158.5,132.8c0,3.5,2.9,6.3,6.4,6.3,3.5,0,6.4-2.9,6.3-6.4,0-3.5-2.9-6.3-6.5-6.2-3.7,0-6.3,2.7-6.3,6.4Z"/>
  <path class="cls-1" d="M72.9,132.8c0,3.5-2.9,6.3-6.5,6.2-3.5,0-6.4-3-6.3-6.5,0-3.5,3-6.2,6.6-6.2,3.7,0,6.3,2.8,6.2,6.4Z"/>
  <path class="cls-1" d="M158.5,132.8c0-3.7,2.6-6.3,6.3-6.4,3.6,0,6.4,2.7,6.5,6.2,0,3.5-2.8,6.4-6.3,6.4-3.5,0-6.4-2.8-6.4-6.3Z"/>
</svg>